<svg width="512" height="512" viewBox="0 0 512 512" fill="none" xmlns="http://www.w3.org/2000/svg">
<path d="M416.737 448.488C403.099 448.488 392.004 437.391 392.004 423.751V401.285L327.703 338.888C327.457 338.65 327.222 338.402 326.995 338.148C323.577 334.305 321.483 329.423 320.974 324.201C320.827 323.394 320.749 322.562 320.749 321.713V213.914C320.743 213.722 320.741 213.531 320.743 213.339L320.852 202.64C320.915 195.008 327.185 188.762 334.831 188.762C341.836 188.762 344.563 191.772 357.669 206.235C363.925 213.14 372.45 222.745 383.006 234.788C400.374 254.6 417.678 274.663 418.902 276.081C433.46 292.504 441.478 313.628 441.478 335.578V423.752C441.477 437.391 430.378 448.488 416.737 448.488ZM348.621 320.406L413.645 383.507V335.577C413.645 320.414 408.098 305.821 398.025 294.487C397.978 294.436 397.932 294.383 397.886 294.328C382.807 276.835 363.425 254.572 348.576 237.82V320.023C348.596 320.148 348.608 320.278 348.621 320.406Z" fill="white"/>
<path d="M95.2609 448.488C81.6199 448.488 70.5229 437.391 70.5229 423.751V335.577C70.5229 313.624 78.5409 292.5 93.1049 276.08C94.3299 274.659 111.632 254.598 128.999 234.787C139.555 222.746 148.08 213.139 154.334 206.234C167.439 191.771 170.165 188.761 177.172 188.761C184.856 188.761 191.151 195.067 191.151 202.753L191.255 213.344C191.258 213.519 191.256 213.695 191.251 213.87V321.711C191.251 322.556 191.176 323.384 191.031 324.187C190.527 329.408 188.432 334.295 185.004 338.147C184.777 338.403 184.542 338.649 184.296 338.886L120.001 401.285V423.751C120 437.391 108.902 448.488 95.2609 448.488ZM163.419 237.822C148.57 254.575 129.193 276.833 114.116 294.326C114.069 294.38 114.023 294.435 113.974 294.487C103.899 305.818 98.3499 320.411 98.3499 335.574V383.509L163.377 320.401C163.388 320.276 163.402 320.151 163.416 320.027V237.822H163.419Z" fill="white"/>
<path d="M308.437 396.354H203.562C181.431 396.354 163.425 379.684 163.425 359.191V139.057C163.425 128.486 166.477 118.063 172.253 108.915L233.299 12.177C238.102 4.557 246.586 0.003 255.99 0C255.993 0 255.996 0 255.998 0C265.402 0 273.887 4.552 278.699 12.177L339.739 108.911C345.514 118.045 348.571 128.472 348.571 139.05C348.571 146.734 342.34 152.965 334.656 152.965C326.972 152.965 320.741 146.734 320.741 139.05C320.741 133.744 319.174 128.462 316.21 123.774L255.998 28.353L195.786 123.768C192.821 128.464 191.254 133.751 191.254 139.055V359.188C191.254 364.248 196.89 368.521 203.561 368.521H308.436C315.106 368.521 320.741 364.248 320.741 359.188V203.122C320.741 195.438 326.972 189.207 334.656 189.207C342.34 189.207 348.571 195.438 348.571 203.122V359.19C348.572 379.682 330.569 396.354 308.437 396.354Z" fill="white"/>
<path d="M256 512C252.774 512 249.546 510.883 246.941 508.648C238.86 501.72 198.558 465.686 198.558 436.719C198.558 405.045 224.326 379.278 255.999 379.278C287.672 379.278 313.44 405.046 313.44 436.719C313.44 465.686 273.137 501.72 265.057 508.648C262.452 510.884 259.226 512 256 512ZM256 407.107C239.673 407.107 226.39 420.39 226.39 436.717C226.39 446.146 241.584 465.009 256 479.162C270.416 465.009 285.61 446.145 285.61 436.717C285.61 420.391 272.327 407.107 256 407.107Z" fill="white"/>
<path d="M256 221.213C229.145 221.213 207.297 199.365 207.297 172.51C207.297 145.655 229.145 123.807 256 123.807C263.684 123.807 269.915 130.038 269.915 137.722C269.915 145.406 263.684 151.637 256 151.637C244.491 151.637 235.127 161.001 235.127 172.51C235.127 184.019 244.491 193.383 256 193.383C267.509 193.383 276.873 184.019 276.873 172.51C276.873 164.826 283.104 158.595 290.788 158.595C298.472 158.595 304.703 164.826 304.703 172.51C304.703 199.364 282.855 221.213 256 221.213Z" fill="white"/>
<path d="M308.437 396.354H203.562C181.431 396.354 163.425 379.684 163.425 359.191V303.778C163.425 296.094 169.656 289.863 177.34 289.863H334.658C342.342 289.863 348.573 296.094 348.573 303.778V359.191C348.574 379.682 330.569 396.354 308.437 396.354ZM191.255 317.692V359.19C191.255 364.25 196.891 368.523 203.562 368.523H308.437C315.108 368.523 320.744 364.25 320.744 359.19V317.692H191.255Z" fill="white"/>
</svg>
