<?xml version="1.0"?>
<svg xmlns="http://www.w3.org/2000/svg" xmlns:xlink="http://www.w3.org/1999/xlink" xmlns:svgjs="http://svgjs.com/svgjs" version="1.1" width="512" height="512" x="0" y="0" viewBox="0 0 512 512" style="enable-background:new 0 0 512 512" xml:space="preserve" class=""><g>
<path xmlns="http://www.w3.org/2000/svg" style="" d="M340.748,431.664c-26.837,0-52.005-10.388-70.866-29.249l-32.949-32.949  c-2.69-2.69-4.201-6.339-4.201-10.143c0-3.804,1.512-7.453,4.201-10.143l121.446-121.446c5.604-5.601,14.684-5.6,20.287,0  l32.949,32.949c39.074,39.075,39.074,102.656,0,141.731C392.752,421.276,367.584,431.664,340.748,431.664z M267.363,359.323  l22.804,22.804c13.443,13.443,31.407,20.846,50.58,20.846s37.137-7.403,50.58-20.846c27.889-27.889,27.889-73.27,0-101.16  l-22.804-22.804L267.363,359.323z" fill="#464bdf" data-original="#2d527c" class=""/>
<path xmlns="http://www.w3.org/2000/svg" style="" d="M345.521,214.877c-33.398-33.398-88.047-33.398-121.447,0l0,0  c-33.398,33.398-33.398,88.049,0,121.447l23.001,23.001l121.447-121.447L345.521,214.877z" fill="#abafff" data-original="#cee8fa" class=""/>
<g xmlns="http://www.w3.org/2000/svg">
	<path style="" d="M247.076,373.668c-3.672,0-7.341-1.4-10.143-4.201l-23.001-23.001   c-39.074-39.076-39.074-102.657,0.001-141.732c18.861-18.861,44.028-29.249,70.865-29.249s52.005,10.388,70.866,29.249   l23.001,23.001c2.69,2.69,4.201,6.339,4.201,10.143s-1.512,7.453-4.201,10.143L257.219,369.466   C254.417,372.268,250.748,373.668,247.076,373.668z M284.798,204.174c-19.172,0-37.137,7.403-50.579,20.846   c-27.889,27.889-27.891,73.27-0.001,101.161l12.858,12.857l101.16-101.16l-12.858-12.857   C321.935,211.577,303.972,204.174,284.798,204.174z" fill="#464bdf" data-original="#2d527c" class=""/>
	<path style="" d="M279.009,284.156c-3.672,0-7.341-1.4-10.143-4.201l-15.304-15.304   c-5.601-5.601-5.601-14.684,0-20.287c5.603-5.601,14.683-5.601,20.287,0l15.304,15.304c5.601,5.601,5.601,14.684,0,20.287   C286.35,282.755,282.679,284.156,279.009,284.156z" fill="#464bdf" data-original="#2d527c" class=""/>
	<path style="" d="M224.079,229.222c-3.841,0-7.673-1.533-10.497-4.566l-12.418-13.329   c-16.857-17.07-16.791-44.672,0.197-61.66l17.827-17.827c2.401-2.401,3.724-5.62,3.724-9.067s-1.323-6.666-3.724-9.067   s-5.62-3.724-9.067-3.724c-3.445,0-6.664,1.321-9.066,3.722l-42.122,42.122c-5.603,5.603-14.683,5.601-20.287,0   c-5.601-5.601-5.601-14.684,0-20.286l42.122-42.12c7.819-7.819,18.243-12.125,29.353-12.125c11.111,0,21.535,4.306,29.354,12.127   c7.819,7.819,12.125,18.243,12.125,29.353s-4.306,21.533-12.125,29.353l-17.827,17.827c-5.87,5.868-5.87,15.419,0,21.287   c0.119,0.119,0.237,0.241,0.351,0.364l12.574,13.495c5.401,5.796,5.079,14.874-0.717,20.273   C231.091,227.948,227.581,229.222,224.079,229.222z" fill="#464bdf" data-original="#2d527c" class=""/>
	<path style="" d="M112.618,184.912c-11.11,0-21.535-4.306-29.354-12.127c-7.819-7.82-12.125-18.244-12.125-29.354   s4.306-21.533,12.125-29.353l29.543-29.542c5.604-5.601,14.684-5.601,20.287,0c5.603,5.601,5.601,14.684,0,20.286l-29.545,29.543   c-2.401,2.401-3.724,5.62-3.724,9.067s1.323,6.666,3.724,9.067s5.621,3.724,9.067,3.724c3.445,0,6.666-1.323,9.067-3.724   l21.572-21.571c5.604-5.601,14.684-5.6,20.287,0c5.601,5.601,5.601,14.684,0,20.286l-21.571,21.571   C134.151,180.606,123.727,184.912,112.618,184.912z" fill="#464bdf" data-original="#2d527c" class=""/>
	<path style="" d="M410.66,503.779H101.34C45.461,503.779,0,458.318,0,402.439V109.561   C0,53.682,45.461,8.221,101.34,8.221h309.32c55.879,0,101.34,45.461,101.34,101.34v292.878   C512,458.318,466.539,503.779,410.66,503.779z M101.34,36.909c-40.059,0-72.652,32.591-72.652,72.652v292.878   c0,40.06,32.593,72.652,72.652,72.652h309.32c40.06,0,72.652-32.591,72.652-72.652V109.561c0-40.06-32.593-72.652-72.652-72.652   C410.66,36.909,101.34,36.909,101.34,36.909z" fill="#464bdf" data-original="#2d527c" class=""/>
</g>
<g xmlns="http://www.w3.org/2000/svg">
</g>
<g xmlns="http://www.w3.org/2000/svg">
</g>
<g xmlns="http://www.w3.org/2000/svg">
</g>
<g xmlns="http://www.w3.org/2000/svg">
</g>
<g xmlns="http://www.w3.org/2000/svg">
</g>
<g xmlns="http://www.w3.org/2000/svg">
</g>
<g xmlns="http://www.w3.org/2000/svg">
</g>
<g xmlns="http://www.w3.org/2000/svg">
</g>
<g xmlns="http://www.w3.org/2000/svg">
</g>
<g xmlns="http://www.w3.org/2000/svg">
</g>
<g xmlns="http://www.w3.org/2000/svg">
</g>
<g xmlns="http://www.w3.org/2000/svg">
</g>
<g xmlns="http://www.w3.org/2000/svg">
</g>
<g xmlns="http://www.w3.org/2000/svg">
</g>
<g xmlns="http://www.w3.org/2000/svg">
</g>
</g></svg>
