<?xml version="1.0"?>
<svg xmlns="http://www.w3.org/2000/svg" xmlns:xlink="http://www.w3.org/1999/xlink" xmlns:svgjs="http://svgjs.com/svgjs" version="1.1" width="512" height="512" x="0" y="0" viewBox="0 0 512 512" style="enable-background:new 0 0 512 512" xml:space="preserve" class=""><g>
<path xmlns="http://www.w3.org/2000/svg" style="" d="M334.658,213.481l0.109-10.729c0-2.982,73.661,82.489,73.661,82.489  c12.326,13.871,19.132,31.775,19.132,50.335v88.174c0,5.974-4.842,10.823-10.823,10.823c-5.975,0-10.818-4.849-10.818-10.823  v-28.352l-68.527-66.497c-1.831-2.059-2.62-4.632-2.627-7.189h-0.103v-108.23h-0.004V213.481z" fill="#abafff" data-original="#cee8fa" class=""/>
<path xmlns="http://www.w3.org/2000/svg" style="" d="M416.737,448.488c-13.638,0-24.733-11.097-24.733-24.737v-22.466l-64.301-62.397  c-0.246-0.238-0.481-0.486-0.708-0.74c-3.418-3.843-5.512-8.725-6.021-13.947c-0.147-0.807-0.225-1.639-0.225-2.488V213.914  c-0.006-0.192-0.008-0.383-0.006-0.575l0.109-10.699c0.063-7.632,6.333-13.878,13.979-13.878c7.005,0,9.732,3.01,22.838,17.473  c6.256,6.905,14.781,16.51,25.337,28.553c17.368,19.812,34.672,39.875,35.896,41.293c14.558,16.423,22.576,37.547,22.576,59.497  v88.174C441.477,437.391,430.378,448.488,416.737,448.488z M348.621,320.406l65.024,63.101v-47.93  c0-15.163-5.547-29.756-15.62-41.09c-0.047-0.051-0.093-0.104-0.139-0.159c-15.079-17.493-34.461-39.756-49.31-56.508v82.203  C348.596,320.148,348.608,320.278,348.621,320.406z" fill="#464bdf" data-original="#2d527c" class=""/>
<path xmlns="http://www.w3.org/2000/svg" style="" d="M177.342,213.481l-0.107-10.729c0-2.982-73.657,82.489-73.657,82.489  c-12.333,13.871-19.139,31.775-19.139,50.335v88.174c0,5.974,4.842,10.823,10.823,10.823c5.975,0,10.825-4.849,10.825-10.823  v-28.352l68.52-66.497c1.831-2.059,2.629-4.632,2.629-7.189h0.102v-108.23h0.006V213.481z" fill="#abafff" data-original="#cee8fa" class=""/>
<g xmlns="http://www.w3.org/2000/svg">
	<path style="" d="M95.261,448.488c-13.641,0-24.738-11.097-24.738-24.737v-88.174   c0-21.953,8.018-43.077,22.582-59.497c1.225-1.421,18.527-21.482,35.894-41.293c10.556-12.041,19.081-21.648,25.335-28.553   c13.105-14.463,15.831-17.473,22.838-17.473c7.684,0,13.979,6.306,13.979,13.992l0.104,10.591c0.003,0.175,0.001,0.351-0.004,0.526   v107.841c0,0.845-0.075,1.673-0.22,2.476c-0.504,5.221-2.599,10.108-6.027,13.96c-0.227,0.256-0.462,0.502-0.708,0.739   l-64.295,62.399v22.466C120,437.391,108.902,448.488,95.261,448.488z M163.419,237.822c-14.849,16.753-34.226,39.011-49.303,56.504   c-0.047,0.054-0.093,0.109-0.142,0.161c-10.075,11.331-15.624,25.924-15.624,41.087v47.935l65.027-63.108   c0.011-0.125,0.025-0.25,0.039-0.374v-82.205H163.419z" fill="#464bdf" data-original="#2d527c" class=""/>
	<path style="" d="M308.437,396.354H203.562c-22.131,0-40.137-16.67-40.137-37.163V139.057   c0-10.571,3.052-20.994,8.828-30.142l61.046-96.738C238.102,4.557,246.586,0.003,255.99,0c0.003,0,0.006,0,0.008,0   c9.404,0,17.889,4.552,22.701,12.177l61.04,96.734c5.775,9.134,8.832,19.561,8.832,30.139c0,7.684-6.231,13.915-13.915,13.915   s-13.915-6.231-13.915-13.915c0-5.306-1.567-10.588-4.531-15.276l-60.212-95.421l-60.212,95.415   c-2.965,4.696-4.532,9.983-4.532,15.287v220.133c0,5.06,5.636,9.333,12.307,9.333h104.875c6.67,0,12.305-4.273,12.305-9.333   V203.122c0-7.684,6.231-13.915,13.915-13.915c7.684,0,13.915,6.231,13.915,13.915V359.19   C348.572,379.682,330.569,396.354,308.437,396.354z" fill="#464bdf" data-original="#2d527c" class=""/>
</g>
<path xmlns="http://www.w3.org/2000/svg" style="" d="M299.525,436.717c0,24.038-43.525,61.366-43.525,61.366s-43.525-37.328-43.525-61.366  c0-24.039,19.487-43.525,43.525-43.525S299.525,412.679,299.525,436.717z" fill="#abafff" data-original="#cee8fa" class=""/>
<g xmlns="http://www.w3.org/2000/svg">
	<path style="" d="M256,512c-3.226,0-6.454-1.117-9.059-3.352c-8.081-6.928-48.383-42.962-48.383-71.929   c0-31.674,25.768-57.441,57.441-57.441s57.441,25.768,57.441,57.441c0,28.967-40.303,65.001-48.383,71.929   C262.452,510.884,259.226,512,256,512z M256,407.107c-16.327,0-29.61,13.283-29.61,29.61c0,9.429,15.194,28.292,29.61,42.445   c14.416-14.153,29.61-33.017,29.61-42.445C285.61,420.391,272.327,407.107,256,407.107z" fill="#464bdf" data-original="#2d527c" class=""/>
	<path style="" d="M256,221.213c-26.855,0-48.703-21.848-48.703-48.703s21.848-48.703,48.703-48.703   c7.684,0,13.915,6.231,13.915,13.915s-6.231,13.915-13.915,13.915c-11.509,0-20.873,9.364-20.873,20.873   s9.364,20.873,20.873,20.873s20.873-9.364,20.873-20.873c0-7.684,6.231-13.915,13.915-13.915c7.684,0,13.915,6.231,13.915,13.915   C304.703,199.364,282.855,221.213,256,221.213z" fill="#464bdf" data-original="#2d527c" class=""/>
</g>
<path xmlns="http://www.w3.org/2000/svg" style="" d="M177.342,303.776v55.414c0,12.842,11.739,23.248,26.22,23.248h104.875  c14.482,0,26.22-10.404,26.22-23.248v-55.414H177.342z" fill="#abafff" data-original="#cee8fa" class=""/>
<path xmlns="http://www.w3.org/2000/svg" style="" d="M308.437,396.354H203.562c-22.131,0-40.137-16.67-40.137-37.163v-55.413  c0-7.684,6.231-13.915,13.915-13.915h157.318c7.684,0,13.915,6.231,13.915,13.915v55.413  C348.574,379.682,330.569,396.354,308.437,396.354z M191.255,317.692v41.498c0,5.06,5.636,9.333,12.307,9.333h104.875  c6.671,0,12.307-4.273,12.307-9.333v-41.498L191.255,317.692L191.255,317.692z" fill="#464bdf" data-original="#2d527c" class=""/>
<g xmlns="http://www.w3.org/2000/svg">
</g>
<g xmlns="http://www.w3.org/2000/svg">
</g>
<g xmlns="http://www.w3.org/2000/svg">
</g>
<g xmlns="http://www.w3.org/2000/svg">
</g>
<g xmlns="http://www.w3.org/2000/svg">
</g>
<g xmlns="http://www.w3.org/2000/svg">
</g>
<g xmlns="http://www.w3.org/2000/svg">
</g>
<g xmlns="http://www.w3.org/2000/svg">
</g>
<g xmlns="http://www.w3.org/2000/svg">
</g>
<g xmlns="http://www.w3.org/2000/svg">
</g>
<g xmlns="http://www.w3.org/2000/svg">
</g>
<g xmlns="http://www.w3.org/2000/svg">
</g>
<g xmlns="http://www.w3.org/2000/svg">
</g>
<g xmlns="http://www.w3.org/2000/svg">
</g>
<g xmlns="http://www.w3.org/2000/svg">
</g>
</g></svg>
