<?xml version="1.0"?>
<svg xmlns="http://www.w3.org/2000/svg" xmlns:xlink="http://www.w3.org/1999/xlink" xmlns:svgjs="http://svgjs.com/svgjs" version="1.1" width="512" height="512" x="0" y="0" viewBox="0 0 512.001 512.001" style="enable-background:new 0 0 512 512" xml:space="preserve" class=""><g>
<path xmlns="http://www.w3.org/2000/svg" style="" d="M375.336,311.987c-0.003,0-0.003,0-0.006,0h-37.594c-8.097,0-14.661-6.565-14.661-14.661  c0-8.097,6.565-14.661,14.661-14.661l0,0h37.597l0,0c1.022,0,2.492-1.122,2.764-2.105l2.671-9.691  c1.129-4.093,3.974-7.496,7.804-9.329l16.415-7.858c4.329-2.07,9.396-1.894,13.567,0.474l10.751,6.103  c0.883,0.501,2.718,0.254,3.439-0.469l26.584-26.583c0.723-0.723,0.972-2.558,0.468-3.447l-5.477-9.647  c-2.245-3.951-2.529-8.72-0.771-12.91l6.882-16.405c1.74-4.146,5.285-7.266,9.62-8.461l10.522-2.903  c0.985-0.273,2.107-1.742,2.107-2.759l0.003-37.603c0-0.481-0.331-1.343-1.056-2.067c-0.367-0.367-0.727-0.579-0.969-0.666  l-10.125-2.501c-4.687-1.158-8.505-4.549-10.205-9.069l-6.929-18.409c-1.532-4.071-1.177-8.613,0.969-12.398l5.637-9.937  c0.506-0.891,0.258-2.725-0.463-3.447l-26.585-26.585c-0.72-0.721-2.551-0.968-3.436-0.468c-0.427,0.242-0.863,0.462-1.311,0.66  l-14.183,6.272c-4.131,1.827-8.871,1.648-12.853-0.485c0,0-3.721-1.992-7.455-4.036c-9.572-5.238-12.797-7.002-14.517-13.23  l-2.588-9.381c-0.031-0.114-0.177-0.535-0.692-1.05c-0.723-0.724-1.579-1.053-2.069-1.053l-37.603-0.003  c-1.016,0-2.488,1.122-2.759,2.104l-2.852,10.34c-1.019,3.697-3.448,6.849-6.764,8.777l-14.458,8.406  c-4.785,2.781-10.729,2.632-15.367-0.387l-10.468-6.813c-0.94-0.38-2.582-0.116-3.253,0.559l-26.584,26.584  c-0.721,0.721-0.969,2.557-0.465,3.447l5.474,9.647c2.233,3.936,2.525,8.683,0.787,12.863l-7.046,16.951  c-1.733,4.169-5.291,7.307-9.644,8.506l-9.521,2.623c-0.976,0.27-2.098,1.746-2.098,2.771l0.001,37.588  c0,8.097-6.564,14.661-14.661,14.661s-14.661-6.564-14.661-14.661l-0.001-37.598c0.007-14.206,9.943-27.251,23.624-31.029  l2.63-0.724l1.547-3.721l-1.937-3.413c-7.006-12.357-4.803-28.607,5.235-38.647l26.583-26.584  c10.041-10.042,26.295-12.245,38.647-5.237c0.258,0.148,0.513,0.302,0.764,0.465l3.478,2.264l1.482-0.862l1.261-4.571  c3.775-13.692,16.823-23.63,31.025-23.631L373.852,1.9c0.001,0,0.003,0,0.004,0c8.361,0,16.671,3.513,22.799,9.641  c3.942,3.942,6.785,8.779,8.223,13.985l1.004,3.639c0.883,0.487,1.849,1.017,2.86,1.569l7.044-3.115  c12.252-6.511,28.059-4.202,37.902,5.641l26.585,26.585c10.044,10.044,12.245,26.3,5.231,38.653l-2.247,3.961l1.793,4.763  l2.942,0.727c0.128,0.031,0.255,0.065,0.381,0.1c5.203,1.435,10.038,4.276,13.982,8.22c6.124,6.124,9.639,14.43,9.645,22.793  l-0.003,37.609c0.004,14.197-9.931,27.25-23.628,31.028l-3.656,1.009l-1.34,3.193l1.922,3.385c7.012,12.354,4.81,28.61-5.232,38.654  l-26.584,26.583c-10.041,10.041-26.291,12.243-38.642,5.238l-4.096-2.325l-3.48,1.665l-0.896,3.25  C402.587,302.049,389.537,311.987,375.336,311.987z M356.746,245.198c-22.651,0-45.3-8.622-62.543-25.864  c-34.488-34.488-34.488-90.602,0-125.09s90.601-34.486,125.09,0c5.725,5.725,5.725,15.008,0,20.734  c-5.725,5.723-15.008,5.723-20.734,0c-23.055-23.057-60.567-23.055-83.622,0s-23.055,60.567,0,83.622s60.567,23.055,83.622,0  c5.725-5.723,15.008-5.725,20.733,0c5.725,5.725,5.725,15.008,0,20.733C402.047,236.576,379.398,245.198,356.746,245.198z" fill="#464bdf" data-original="#2d527c" class=""/>
<path xmlns="http://www.w3.org/2000/svg" style="" d="M290.079,324.758c-2.152-2.152-4.751-3.694-7.515-4.455l-10.431-2.576l-6.929-18.409l5.638-9.937  c3.758-6.619,2.533-15.668-2.847-21.048l-26.585-26.585c-5.38-5.38-14.429-6.605-21.044-2.849l-14.183,6.272  c0,0-14.655-7.849-14.763-8.247l-2.586-9.377c-0.764-2.765-2.305-5.366-4.458-7.518c-3.4-3.4-7.934-5.348-12.437-5.347l-37.6-0.003  c-7.609,0.001-14.87,5.533-16.893,12.868l-2.851,10.34l-14.458,8.406l-11.041-7.187c-6.618-3.755-15.665-2.529-21.045,2.853  l-26.584,26.584c-5.377,5.378-6.605,14.425-2.851,21.044l5.477,9.651l-7.046,16.951l-9.519,2.623  c-7.33,2.023-12.86,9.285-12.865,16.896l0.003,37.597c0,4.507,1.95,9.04,5.347,12.438l0,0c2.152,2.152,4.753,3.694,7.519,4.458  l9.12,2.519l7.487,18.357l-5.31,9.358c-3.758,6.616-2.535,15.665,2.847,21.047l26.585,26.585c5.38,5.38,14.429,6.605,21.048,2.849  l9.358-5.313l17.588,7.279l2.673,9.698c0.762,2.765,2.305,5.366,4.458,7.519c3.4,3.4,7.934,5.348,12.438,5.347h37.596  c7.61,0.001,14.875-5.53,16.898-12.868l2.671-9.694l16.415-7.858l10.752,6.102c6.618,3.753,15.663,2.527,21.042-2.852l26.584-26.584  c5.382-5.38,6.608-14.429,2.852-21.048l-5.479-9.65l6.882-16.405l10.522-2.903c7.338-2.025,12.869-9.289,12.866-16.896l0.003-37.596  C295.425,332.688,293.475,328.155,290.079,324.758z M207.013,407.083c-28.817,28.817-75.539,28.817-104.355,0  s-28.817-75.539,0-104.355s75.539-28.817,104.355,0C235.83,331.544,235.83,378.266,207.013,407.083z" fill="#abafff" data-original="#cee8fa" class=""/>
<path xmlns="http://www.w3.org/2000/svg" style="" d="M173.424,510.104c-0.001,0-0.007,0-0.009,0h-37.591c-8.368,0-16.676-3.513-22.805-9.639  c-3.944-3.944-6.788-8.78-8.225-13.988l-0.77-2.793l-4.347-1.799l-3.13,1.777c-4.708,2.673-10.144,4.083-15.723,4.083  c-8.654,0-17.012-3.394-22.931-9.314l-26.585-26.585c-10.044-10.044-12.243-26.3-5.228-38.653l1.797-3.167l-2.077-5.093l-2.171-0.6  c-5.209-1.44-10.044-4.282-13.986-8.225c-6.127-6.127-9.641-14.439-9.641-22.805L0,335.708c0.007-14.206,9.943-27.253,23.624-31.031  l2.63-0.724l1.547-3.721l-1.937-3.413c-7.006-12.357-4.803-28.607,5.235-38.645l26.583-26.584c5.921-5.92,14.279-9.315,22.935-9.315  c5.577,0,11.01,1.41,15.713,4.079c0.259,0.148,0.513,0.302,0.764,0.465l3.477,2.264l1.482-0.862l1.261-4.57  c3.777-13.692,16.824-23.63,31.025-23.631l37.603,0.003c0.001,0,0.003,0,0.004,0c8.361,0,16.671,3.513,22.797,9.641  c3.941,3.941,6.785,8.776,8.222,13.98l1.004,3.642c0.883,0.487,1.85,1.017,2.86,1.569l7.046-3.115  c4.527-2.406,9.685-3.672,14.97-3.672c8.653,0,17.011,3.394,22.929,9.314l26.587,26.585c10.044,10.044,12.243,26.298,5.231,38.651  l-2.249,3.963l1.793,4.763l2.942,0.727c0.128,0.031,0.255,0.065,0.381,0.1c5.204,1.435,10.04,4.278,13.983,8.222  c6.124,6.124,9.639,14.432,9.644,22.793l-0.001,37.606c0.004,14.2-9.934,27.251-23.63,31.029l-3.655,1.009l-1.34,3.193l1.922,3.385  c7.012,12.356,4.81,28.61-5.234,38.654l-26.583,26.583c-5.92,5.92-14.278,9.315-22.932,9.315c-0.001,0-0.001,0-0.001,0  c-5.575,0-11.007-1.41-15.709-4.077l-4.096-2.324l-3.48,1.665l-0.896,3.25C200.675,500.167,187.626,510.104,173.424,510.104z   M98.669,450.939c1.9,0,3.806,0.369,5.606,1.114l17.588,7.28c4.178,1.73,7.326,5.291,8.527,9.651l2.673,9.698  c0.031,0.111,0.176,0.534,0.691,1.048c0.723,0.723,1.579,1.053,2.067,1.053h37.6l0.004,14.661v-14.661  c1.019,0,2.489-1.122,2.761-2.105l2.671-9.691c1.129-4.093,3.974-7.496,7.804-9.329l16.415-7.857  c4.326-2.072,9.393-1.894,13.565,0.474l10.751,6.102c0.283,0.16,0.749,0.258,1.242,0.258l0,0c1.012,0,1.849-0.377,2.198-0.727  l26.584-26.583c0.723-0.723,0.972-2.558,0.468-3.447l-5.477-9.647c-2.243-3.951-2.529-8.72-0.771-12.91l6.882-16.405  c1.74-4.146,5.285-7.266,9.62-8.461l10.522-2.903c0.985-0.273,2.107-1.742,2.107-2.761l0.001-37.6c0-0.484-0.331-1.344-1.056-2.069  c-0.367-0.367-0.727-0.578-0.968-0.664l-10.126-2.501c-4.687-1.158-8.505-4.551-10.205-9.069l-6.929-18.409  c-1.532-4.071-1.177-8.615,0.969-12.398l5.638-9.937c0.506-0.89,0.258-2.725-0.463-3.447l-26.585-26.585  c-0.35-0.35-1.186-0.726-2.198-0.726c-0.491,0-0.954,0.097-1.24,0.258c-0.427,0.242-0.862,0.462-1.311,0.66l-14.183,6.272  c-4.13,1.825-8.871,1.648-12.851-0.485c0,0-3.721-1.992-7.455-4.036c-9.572-5.237-12.797-7.002-14.517-13.228l-2.588-9.384  c-0.031-0.11-0.177-0.534-0.692-1.048c-0.723-0.723-1.579-1.053-2.069-1.053l-37.603-0.003c-1.016,0-2.488,1.122-2.759,2.105  l-2.851,10.339c-1.02,3.697-3.448,6.848-6.764,8.776l-14.458,8.406c-4.785,2.781-10.727,2.632-15.367-0.387l-10.457-6.808  c-0.283-0.111-0.664-0.174-1.063-0.174c-1.012,0-1.85,0.377-2.201,0.727l-26.584,26.584c-0.721,0.721-0.969,2.557-0.465,3.447  l5.474,9.648c2.233,3.936,2.525,8.683,0.787,12.862l-7.046,16.951c-1.733,4.169-5.29,7.307-9.644,8.506l-9.521,2.623  c-0.976,0.27-2.098,1.746-2.098,2.771l0.003,37.588c0,0.491,0.33,1.349,1.054,2.074c0.515,0.515,0.94,0.661,1.057,0.693l9.117,2.516  c4.384,1.21,7.956,4.385,9.675,8.596l7.487,18.357c1.696,4.159,1.393,8.865-0.824,12.772l-5.31,9.358  c-0.506,0.89-0.258,2.722,0.463,3.444l26.585,26.586c0.349,0.35,1.186,0.726,2.198,0.726c0.493,0,0.96-0.097,1.248-0.261  l9.356-5.312C93.665,451.581,96.162,450.939,98.669,450.939z M154.836,443.356c-23.627,0-45.839-9.2-62.545-25.905  c-34.488-34.488-34.488-90.602,0-125.09c16.706-16.706,38.918-25.907,62.545-25.907c23.626,0,45.838,9.201,62.545,25.907  c34.486,34.486,34.486,90.601,0,125.088C200.674,434.157,178.462,443.356,154.836,443.356z M154.836,295.776  c-15.794,0-30.644,6.15-41.812,17.319c-23.055,23.054-23.055,60.567,0,83.622c11.168,11.167,26.017,17.319,41.812,17.319  c15.794,0,30.642-6.15,41.812-17.319c23.054-23.055,23.054-60.567,0-83.622C185.478,301.926,170.63,295.776,154.836,295.776z" fill="#464bdf" data-original="#2d527c" class=""/>
<g xmlns="http://www.w3.org/2000/svg">
</g>
<g xmlns="http://www.w3.org/2000/svg">
</g>
<g xmlns="http://www.w3.org/2000/svg">
</g>
<g xmlns="http://www.w3.org/2000/svg">
</g>
<g xmlns="http://www.w3.org/2000/svg">
</g>
<g xmlns="http://www.w3.org/2000/svg">
</g>
<g xmlns="http://www.w3.org/2000/svg">
</g>
<g xmlns="http://www.w3.org/2000/svg">
</g>
<g xmlns="http://www.w3.org/2000/svg">
</g>
<g xmlns="http://www.w3.org/2000/svg">
</g>
<g xmlns="http://www.w3.org/2000/svg">
</g>
<g xmlns="http://www.w3.org/2000/svg">
</g>
<g xmlns="http://www.w3.org/2000/svg">
</g>
<g xmlns="http://www.w3.org/2000/svg">
</g>
<g xmlns="http://www.w3.org/2000/svg">
</g>
</g></svg>
