<?xml version="1.0"?>
<svg xmlns="http://www.w3.org/2000/svg" xmlns:xlink="http://www.w3.org/1999/xlink" xmlns:svgjs="http://svgjs.com/svgjs" version="1.1" width="512" height="512" x="0" y="0" viewBox="0 0 512 512" style="enable-background:new 0 0 512 512" xml:space="preserve" class=""><g>
<path xmlns="http://www.w3.org/2000/svg" style="" d="M323.928,162.085H188.072c-18.116,0-32.801-14.685-32.801-32.801V59.068  c0-18.116,14.685-32.801,32.801-32.801h135.857c18.116,0,32.801,14.685,32.801,32.801v70.217  C356.729,147.4,342.044,162.085,323.928,162.085z" fill="#abafff" data-original="#cee8fa" class=""/>
<g xmlns="http://www.w3.org/2000/svg">
	<path style="" d="M323.928,176.905H188.072c-26.258,0-47.621-21.363-47.621-47.621V59.066   c0-26.258,21.363-47.621,47.621-47.621h135.857c26.258,0,47.621,21.363,47.621,47.621v70.218   C371.549,155.542,350.186,176.905,323.928,176.905z M188.072,41.087c-9.915,0-17.981,8.065-17.981,17.981v70.218   c0,9.915,8.065,17.981,17.981,17.981h135.857c9.914,0,17.981-8.065,17.981-17.981v-70.22c0-9.914-8.065-17.981-17.981-17.981   H188.072V41.087z" fill="#464bdf" data-original="#2d527c" class=""/>
	<path style="" d="M256,439.094c-8.184,0-14.82-6.636-14.82-14.82V220.927c0-8.184,6.636-14.82,14.82-14.82   c8.184,0,14.82,6.636,14.82,14.82v203.346C270.82,432.459,264.185,439.094,256,439.094z" fill="#464bdf" data-original="#2d527c" class=""/>
	<path style="" d="M442.078,347.403c-8.184,0-14.82-6.636-14.82-14.82v-41.272h-63.902   c-8.184,0-14.82-6.636-14.82-14.82c0-8.184,6.636-14.82,14.82-14.82h67.141c14.558,0,26.4,11.843,26.4,26.4v44.51   C456.898,340.767,450.262,347.403,442.078,347.403z" fill="#464bdf" data-original="#2d527c" class=""/>
	<path style="" d="M69.923,347.403c-8.184,0-14.82-6.636-14.82-14.82v-44.51c0-14.558,11.843-26.4,26.4-26.4h215.054   c8.184,0,14.82,6.636,14.82,14.82c0,8.184-6.636,14.82-14.82,14.82H84.743v41.272C84.743,340.767,78.107,347.403,69.923,347.403z" fill="#464bdf" data-original="#2d527c" class=""/>
	<path style="" d="M470.35,457.608h-56.545c-22.965,0-41.65-18.683-41.65-41.65v-56.545   c0-22.965,18.683-41.65,41.65-41.65h56.545c22.966,0,41.65,18.683,41.65,41.65v27.916c0,8.184-6.636,14.82-14.82,14.82   s-14.82-6.636-14.82-14.82v-27.916c0-6.623-5.388-12.01-12.01-12.01h-56.545c-6.623,0-12.01,5.387-12.01,12.01v56.545   c0,6.623,5.387,12.01,12.01,12.01h56.545c8.184,0,14.82,6.636,14.82,14.82S478.534,457.608,470.35,457.608z" fill="#464bdf" data-original="#2d527c" class=""/>
	<path style="" d="M98.196,457.608H41.65c-22.966,0-41.65-18.683-41.65-41.65v-56.545   c0-22.965,18.683-41.65,41.65-41.65h56.547c22.965,0,41.65,18.683,41.65,41.65v27.916c0,8.184-6.636,14.82-14.82,14.82   s-14.82-6.636-14.82-14.82v-27.916c0-6.623-5.387-12.01-12.01-12.01H41.65c-6.623,0-12.01,5.387-12.01,12.01v56.545   c0,6.623,5.389,12.01,12.01,12.01h56.547c8.184,0,14.82,6.636,14.82,14.82S106.38,457.608,98.196,457.608z" fill="#464bdf" data-original="#2d527c" class=""/>
</g>
<path xmlns="http://www.w3.org/2000/svg" style="" d="M284.273,485.735h-56.545c-14.818,0-26.83-12.012-26.83-26.83V402.36  c0-14.818,12.011-26.83,26.83-26.83h56.545c14.818,0,26.83,12.012,26.83,26.83v56.545  C311.103,473.722,299.09,485.735,284.273,485.735z" fill="#abafff" data-original="#cee8fa" class=""/>
<path xmlns="http://www.w3.org/2000/svg" style="" d="M284.272,500.555h-56.544c-22.966,0-41.65-18.683-41.65-41.65V402.36  c0-22.966,18.683-41.65,41.65-41.65h56.544c22.966,0,41.65,18.683,41.65,41.65v56.544  C325.923,481.87,307.238,500.555,284.272,500.555z M227.728,390.35c-6.623,0-12.01,5.388-12.01,12.01v56.544  c0,6.623,5.389,12.01,12.01,12.01h56.544c6.623,0,12.01-5.388,12.01-12.01V402.36c0-6.623-5.388-12.01-12.01-12.01H227.728z" fill="#464bdf" data-original="#2d527c" class=""/>
<g xmlns="http://www.w3.org/2000/svg">
</g>
<g xmlns="http://www.w3.org/2000/svg">
</g>
<g xmlns="http://www.w3.org/2000/svg">
</g>
<g xmlns="http://www.w3.org/2000/svg">
</g>
<g xmlns="http://www.w3.org/2000/svg">
</g>
<g xmlns="http://www.w3.org/2000/svg">
</g>
<g xmlns="http://www.w3.org/2000/svg">
</g>
<g xmlns="http://www.w3.org/2000/svg">
</g>
<g xmlns="http://www.w3.org/2000/svg">
</g>
<g xmlns="http://www.w3.org/2000/svg">
</g>
<g xmlns="http://www.w3.org/2000/svg">
</g>
<g xmlns="http://www.w3.org/2000/svg">
</g>
<g xmlns="http://www.w3.org/2000/svg">
</g>
<g xmlns="http://www.w3.org/2000/svg">
</g>
<g xmlns="http://www.w3.org/2000/svg">
</g>
</g></svg>
