<svg width="512" height="512" viewBox="0 0 512 512" fill="none" xmlns="http://www.w3.org/2000/svg">
<path d="M323.5 340.789V295C323.5 271.236 333.339 248.371 351.204 230.616C376.867 205.112 391 171.155 391 135C391 60.561 330.439 0 256 0C181.561 0 121 60.561 121 135C121 171.155 135.133 205.112 160.796 230.616C178.661 248.371 188.5 271.236 188.5 295V340.789C116.949 348.308 61 408.991 61 482.5V497C61 505.284 67.716 512 76 512H436C444.284 512 451 505.284 451 497V482.5C451 408.991 395.051 348.308 323.5 340.789ZM181.942 209.337C161.989 189.507 151 163.107 151 135C151 77.103 198.103 30 256 30C313.897 30 361 77.103 361 135C361 163.107 350.011 189.507 330.058 209.337C310.22 229.052 297.882 253.72 294.469 280H271V181.213L306.606 145.607C312.464 139.749 312.464 130.252 306.606 124.394C300.749 118.536 291.251 118.536 285.393 124.394L256 153.787L226.606 124.394C220.749 118.536 211.251 118.536 205.393 124.394C199.535 130.252 199.535 139.749 205.393 145.607L241 181.213V280H217.531C214.118 253.72 201.78 229.052 181.942 209.337V209.337ZM218.5 340V310H293.5V340H218.5ZM275.188 370L265.188 400H246.812L236.812 370H275.188ZM204.219 482H91.001C91.272 420.196 141.634 370 203.5 370H205.188L220.403 415.644L204.219 482ZM235.099 482L247.782 430H264.22L276.903 482H235.099ZM307.781 482L291.597 415.644L306.812 370H308.5C370.366 370 420.729 420.196 420.999 482H307.781Z" fill="#464BDF"/>
<path d="M466 120H436C427.716 120 421 126.716 421 135C421 143.284 427.716 150 436 150H466C474.284 150 481 143.284 481 135C481 126.716 474.284 120 466 120Z" fill="#464BDF"/>
<path d="M423.5 72.99L449.48 57.99C456.654 53.848 459.112 44.674 454.97 37.5C450.828 30.326 441.654 27.868 434.48 32.01L408.5 47.01C401.326 51.152 398.868 60.326 403.01 67.5C407.152 74.674 416.326 77.132 423.5 72.99Z" fill="#464BDF"/>
<path d="M449.48 212.01L423.5 197.01C416.326 192.868 407.152 195.326 403.01 202.5C398.868 209.674 401.326 218.848 408.5 222.99L434.48 237.99C441.654 242.132 450.828 239.674 454.97 232.5C459.112 225.326 456.655 216.152 449.48 212.01Z" fill="#464BDF"/>
<path d="M91 135C91 126.715 84.284 120 76 120H46C37.716 120 31 126.716 31 135C31 143.284 37.716 150 46 150H76C84.284 150 91 143.284 91 135Z" fill="#464BDF"/>
<path d="M62.52 57.99L88.5 72.99C95.674 77.132 104.848 74.674 108.99 67.5C113.132 60.326 110.674 51.152 103.5 47.01L77.52 32.01C70.346 27.868 61.172 30.326 57.03 37.5C52.888 44.674 55.345 53.848 62.52 57.99V57.99Z" fill="#464BDF"/>
<path d="M77.52 237.99L103.5 222.99C110.674 218.848 113.132 209.674 108.99 202.5C104.848 195.326 95.674 192.868 88.5 197.01L62.52 212.01C55.346 216.152 52.888 225.326 57.03 232.5C61.172 239.674 70.345 242.132 77.52 237.99Z" fill="#464BDF"/>
</svg>
