<svg width="512" height="512" viewBox="0 0 512 512" fill="none" xmlns="http://www.w3.org/2000/svg">
<g clip-path="url(#clip0_1_11)">
<path d="M121.761 165.351H258.943C267.26 165.351 274.002 158.609 274.002 150.292C274.002 141.976 267.26 135.233 258.943 135.233H121.761C113.444 135.233 106.702 141.976 106.702 150.292C106.702 158.609 113.443 165.351 121.761 165.351V165.351Z" fill="#464BDF"/>
<path d="M121.761 227.698H258.943C267.26 227.698 274.002 220.956 274.002 212.64C274.002 204.323 267.26 197.581 258.943 197.581H121.761C113.444 197.581 106.702 204.323 106.702 212.64C106.702 220.956 113.443 227.698 121.761 227.698V227.698Z" fill="#464BDF"/>
<path d="M496.941 101.474C505.258 101.474 512 94.732 512 86.4156V15.2506C512 6.93407 505.258 0.191734 496.941 0.191734H15.0588C6.74234 0.191734 0 6.93407 0 15.2506V86.4156C0 94.732 6.74234 101.474 15.0588 101.474H26.102V407.401C26.102 415.718 32.8443 422.46 41.1608 422.46H146.204C152.034 440.818 169.281 454.625 190.233 454.625H271.039C275.35 454.625 279.513 453.979 283.437 452.782V496.749C283.437 505.066 290.18 511.808 298.496 511.808H298.498H496.94C505.257 511.808 511.999 505.066 511.999 496.749V364.292C511.999 342.748 501.757 323.561 485.897 311.31V101.474H496.941ZM30.1176 30.3094H481.882V71.3567H30.1176V30.3094ZM481.882 481.691H442.691V391.581C442.691 383.264 435.949 376.522 427.632 376.522C419.316 376.522 412.574 383.264 412.574 391.581V481.691H313.557V391.581C313.557 383.264 306.815 376.522 298.498 376.522C290.182 376.522 283.439 383.264 283.439 391.581V412.06C283.439 412.076 283.437 412.092 283.437 412.108C283.437 418.944 277.875 424.506 271.039 424.506H190.233C181.324 424.506 174.15 417.296 174.15 408.423C174.15 399.556 181.365 392.341 190.233 392.341H238.923C247.24 392.341 253.982 385.598 253.982 377.282V364.291C253.982 343.992 270.502 327.477 290.806 327.477H445.069C465.368 327.477 481.882 343.992 481.882 364.291V481.691ZM333.692 267.981V242.013C333.692 225.816 346.868 212.64 363.065 212.64C379.263 212.64 392.439 225.816 392.439 242.013V267.981C392.439 284.178 379.263 297.355 363.065 297.355C346.868 297.355 333.692 284.178 333.692 267.981ZM455.78 298.228C452.291 297.664 448.715 297.36 445.069 297.36H414.765C419.714 288.686 422.558 278.662 422.558 267.981V242.013C422.558 209.209 395.87 182.522 363.066 182.522C330.262 182.522 303.575 209.209 303.575 242.013V267.981C303.575 278.662 306.419 288.686 311.367 297.36H290.807C254.586 297.36 224.993 326.269 223.897 362.223H190.233C185.359 362.223 180.661 362.987 176.246 364.392L123.751 264.847C119.872 257.491 110.763 254.672 103.407 258.551C96.0502 262.43 93.2322 271.539 97.1113 278.895L151.862 382.72C149.859 385.701 148.196 388.926 146.924 392.342H56.2196V101.474H455.78V298.228Z" fill="#464BDF"/>
</g>
<defs>
<clipPath id="clip0_1_11">
<rect width="512" height="512" fill="white"/>
</clipPath>
</defs>
</svg>
