<svg width="512" height="512" viewBox="0 0 512 512" fill="none" xmlns="http://www.w3.org/2000/svg">
<g clip-path="url(#clip0_1_2)">
<path d="M507.203 32.244L505.028 20.2765C503.797 13.5067 498.5 8.21096 491.731 6.97942L479.763 4.80435C428.883 -4.44406 376.22 -0.264257 327.474 16.8988C264.049 39.2286 222.451 75.9734 185.803 121.508L166.448 114.865C135.049 104.084 100.284 111.264 75.7205 133.596L14.5916 189.168C-14.9147 215.99 3.22804 265.222 43.0997 266.463L97.1708 268.149C94.3856 284.939 99.7072 302.451 112.195 314.937L197.071 399.814C209.137 411.88 226.459 417.73 243.861 414.843L245.546 468.911C246.791 508.896 296.107 526.828 322.842 497.418L378.414 436.289C400.746 411.725 407.922 376.96 397.145 345.562L390.501 326.205C434.844 290.515 472.221 249.551 495.11 184.536C512.273 135.786 516.454 83.1242 507.203 32.244V32.244ZM36.811 213.609L97.9399 158.037C113.583 143.817 135.725 139.245 155.722 146.109L164.648 149.173C145.369 175.714 127.233 204.613 110.972 235.528L44.1269 233.445C33.8503 233.125 29.1987 220.53 36.811 213.609V213.609ZM365.899 356.285C372.763 376.283 368.193 398.423 353.97 414.067L298.397 475.196C291.482 482.805 278.882 478.164 278.562 467.881L276.479 401.038C306.534 385.229 335.407 367.284 362.834 347.359L365.899 356.285ZM385.89 287.092C342.856 324.005 295.167 355.409 244.145 380.432C236.224 384.316 226.692 382.718 220.429 376.454C220.533 376.454 221.199 377.226 135.552 291.577C129.289 285.314 127.691 275.783 131.575 267.861C135.807 259.232 140.236 250.707 144.829 242.276L234.426 331.872C240.877 338.323 251.333 338.322 257.784 331.872C264.234 325.422 264.234 314.964 257.784 308.514L161.932 212.664C181.215 181.178 202.451 152.205 226.272 124.538C286.043 55.2912 380.034 20.2827 474.571 37.4344C491.257 129.399 459.134 224.092 385.89 287.092V287.092ZM292.009 119.315C247.245 164.076 279.225 240.818 342.351 240.818C405.42 240.818 437.509 164.128 392.694 119.315C364.933 91.555 319.769 91.555 292.009 119.315ZM369.335 196.64C354.455 211.518 330.246 211.518 315.367 196.64C300.488 181.762 300.488 157.551 315.367 142.673C330.247 127.794 354.455 127.794 369.335 142.673C384.213 157.551 384.213 181.762 369.335 196.64ZM25.3648 386.283C18.9139 379.833 18.9139 369.375 25.3648 362.925L46.7531 341.538C53.2029 335.088 63.6612 335.088 70.111 341.538C76.5619 347.988 76.5619 358.446 70.111 364.896L48.7227 386.284C42.2718 392.734 31.8146 392.734 25.3648 386.283V386.283ZM171.292 442.719C177.743 449.169 177.743 459.627 171.292 466.077L149.905 487.465C146.679 490.69 142.453 492.304 138.226 492.304C123.644 492.304 116.11 474.543 126.546 464.108L147.933 442.72C154.385 436.269 164.842 436.267 171.292 442.719V442.719ZM135.214 400.151L62.5907 472.775C56.1388 479.225 45.6826 479.225 39.2327 472.775C32.7819 466.325 32.7819 455.866 39.2327 449.417L111.856 376.792C118.307 370.342 128.764 370.342 135.214 376.792C141.665 383.243 141.665 393.701 135.214 400.151Z" fill="#464BDF"/>
</g>
<defs>
<clipPath id="clip0_1_2">
<rect width="512" height="512" fill="white"/>
</clipPath>
</defs>
</svg>
