<svg width="512" height="512" viewBox="0 0 512 512" fill="none" xmlns="http://www.w3.org/2000/svg">
<g clip-path="url(#clip0_1_15)">
<path d="M503.731 152.692L262.718 31.985C258.489 29.867 253.51 29.867 249.282 31.985L8.269 152.692C-2.748 158.21 -2.764 173.99 8.269 179.515L90.991 220.944V335.603C90.991 338.31 91.723 340.966 93.111 343.291C121.977 391.653 199.193 407.149 256.005 407.149C274.554 407.149 293.111 405.617 310.782 402.563C312.18 404.32 313.704 405.971 315.344 407.501L292.247 460.623C287.946 470.512 295.205 481.604 306.004 481.604H386.008C396.792 481.604 404.072 470.526 399.765 460.623L376.666 407.5C386.248 398.564 391.603 385.887 390.951 372.407C403.008 363.939 412.397 354.166 418.888 343.29C422.662 336.969 420.268 342.313 421.008 220.944L503.73 179.515C514.749 173.997 514.764 158.217 503.731 152.692V152.692ZM120.993 331.165V235.97L249.282 300.22C253.509 302.337 258.489 302.338 262.718 300.22L332.004 265.52V331.844C314.275 337.663 301.378 354.212 301.023 373.778C226.551 385.425 146.14 366.635 120.993 331.165V331.165ZM346.005 359.603C354.277 359.603 361.006 366.332 361.006 374.603C361.006 382.874 354.277 389.603 346.005 389.603C337.733 389.603 331.004 382.874 331.004 374.603C331.004 366.332 337.733 359.603 346.005 359.603ZM363.128 451.603H328.882L342.849 419.48C345.198 419.644 346.812 419.644 349.161 419.48L363.128 451.603ZM391.007 331.174C387.841 335.663 383.78 339.923 378.889 343.928C374.241 338.949 368.481 335.025 362.006 332.553V250.495L391.008 235.97V331.174H391.007ZM347.087 224.414L248.388 168.55C241.181 164.47 232.027 167.005 227.945 174.215C223.864 181.424 226.4 190.577 233.61 194.658L314.774 240.598L256 270.032L48.484 166.103L256 62.173L463.516 166.103L347.087 224.414Z" fill="white"/>
</g>
<defs>
<clipPath id="clip0_1_15">
<rect width="512" height="512" fill="white"/>
</clipPath>
</defs>
</svg>
