<svg width="512" height="512" viewBox="0 0 512 512" fill="none" xmlns="http://www.w3.org/2000/svg">
<g clip-path="url(#clip0_1_4)">
<path d="M477.054 181.06L456.2 170.634C514.035 132.082 487.131 40.472 416.667 40.178C346.196 40.475 319.301 132.107 377.146 170.64L356.26 181.086C354.103 182.165 352.033 183.359 350.045 184.648C346.216 165.857 334.043 149.727 316.389 140.908L295.535 130.483C353.37 91.93 326.465 0.322 256.001 0.0270004C185.528 0.324 158.634 91.959 216.482 130.491L195.598 140.941C177.965 149.758 165.804 165.868 161.967 184.634C159.97 183.34 157.889 182.142 155.722 181.059L134.868 170.633C192.7 132.082 165.796 40.473 95.332 40.179C24.86 40.476 -2.034 132.108 55.811 170.641L34.926 181.087C13.383 191.868 0 213.529 0 237.615V304.228C0 312.512 6.716 319.228 15 319.228H64.267V464.493C64.267 469.455 66.721 474.096 70.822 476.89C74.924 479.683 80.14 480.269 84.758 478.452C85.051 478.337 115.962 466.392 151.526 464.377C195.783 461.867 226.535 475.335 242.938 504.4C248.476 514.494 263.528 514.497 269.065 504.4C285.468 475.335 316.219 461.867 360.477 464.377C396.041 466.393 426.951 478.337 427.245 478.452C431.863 480.269 437.079 479.683 441.181 476.89C445.282 474.096 447.736 469.455 447.736 464.493V319.228H497C505.284 319.228 512 312.512 512 304.228V237.591C512 213.488 498.607 191.826 477.054 181.06ZM375.434 111.412C375.434 88.676 393.931 70.179 416.667 70.179C471.294 72.252 471.279 150.581 416.666 152.646C393.931 152.645 375.434 134.148 375.434 111.412ZM214.767 71.261C214.767 48.525 233.264 30.028 256 30.028C310.627 32.101 310.612 110.43 255.999 112.495C233.264 112.495 214.767 93.998 214.767 71.261ZM54.1 111.412C54.1 88.676 72.597 70.179 95.333 70.179C149.96 72.252 149.945 150.581 95.332 152.646C72.597 152.645 54.1 134.148 54.1 111.412ZM73.777 257.469C68.039 259.725 64.267 265.262 64.267 271.428V289.228H30V237.615C30 224.96 37.032 213.579 48.349 207.916L95.336 184.415L142.309 207.895C153.633 213.551 160.667 224.93 160.667 237.591V241.036C156.869 241.053 153.003 241.171 149.059 241.409C108.854 243.827 75.19 256.913 73.777 257.469V257.469ZM241 457.389C217.889 440.043 186.797 432.198 149.058 434.47C127.643 435.76 108.085 440.075 94.266 443.911V282.144C106.14 278.422 127.796 272.659 151.524 271.315C194.093 268.905 224.171 281.273 241 308.089V457.389ZM256 278.177C239.817 259.878 217.769 248.179 190.667 243.438V197.464C190.667 184.809 197.697 173.432 209.019 167.771L256.003 144.264L302.976 167.744C314.299 173.4 321.333 184.779 321.333 197.44V243.438C294.231 248.18 272.183 259.879 256 278.177V278.177ZM417.733 443.911C403.915 440.075 384.357 435.759 362.941 434.47C325.202 432.199 294.11 440.044 270.999 457.389V308.09C287.828 281.275 317.906 268.906 360.475 271.316C384.203 272.66 405.859 278.423 417.733 282.145V443.911ZM482 289.228H447.733V271.428C447.733 265.262 443.961 259.725 438.223 257.469C436.81 256.913 403.146 243.827 362.941 241.409C358.997 241.171 355.131 241.054 351.333 241.036V237.615C351.333 224.961 358.365 213.58 369.682 207.916L416.67 184.415L463.643 207.895C474.966 213.551 482 224.93 482 237.591V289.228Z" fill="white"/>
<path d="M194.742 372.911C178.931 369.674 161.246 368.908 142.18 370.635C133.929 371.383 127.847 378.677 128.594 386.927C129.342 395.178 136.642 401.26 144.886 400.513C161.033 399.05 175.783 399.652 188.724 402.302C200.178 404.642 205.58 394.757 206.428 390.615C208.09 382.499 202.858 374.573 194.742 372.911Z" fill="white"/>
<path d="M194.742 308.564C178.912 305.324 161.228 304.556 142.18 306.28C122.444 308.81 125.039 337.22 144.886 336.158C161.016 334.697 175.766 335.302 188.725 337.955C200.18 340.297 205.581 330.41 206.429 326.268C208.09 318.152 202.858 310.225 194.742 308.564Z" fill="white"/>
<path d="M369.82 370.635C350.754 368.908 333.069 369.674 317.258 372.911C309.142 374.573 303.91 382.499 305.571 390.615C306.419 394.756 311.821 404.642 323.275 402.302C336.216 399.653 350.965 399.05 367.113 400.513C375.357 401.26 382.658 395.179 383.405 386.927C384.153 378.677 378.071 371.382 369.82 370.635Z" fill="white"/>
<path d="M317.258 308.564C309.142 310.226 303.909 318.152 305.571 326.268C306.419 330.41 311.82 340.297 323.275 337.955C336.234 335.302 350.984 334.697 367.114 336.158C386.976 337.214 389.541 308.801 369.82 306.28C350.772 304.556 333.088 305.323 317.258 308.564Z" fill="white"/>
</g>
<defs>
<clipPath id="clip0_1_4">
<rect width="512" height="512" fill="white"/>
</clipPath>
</defs>
</svg>
