<svg width="512" height="512" viewBox="0 0 512 512" fill="none" xmlns="http://www.w3.org/2000/svg">
<g clip-path="url(#clip0_1_27)">
<path d="M358.93 434.37H336.388C323.426 408.874 298.983 390.971 270.996 386.196V340.754L280.829 330.946C328.012 342.305 376.797 328.234 410.586 294.53C446.973 258.234 460.032 205.205 444.663 156.137C443.192 151.441 439.511 147.765 434.813 146.301C385.656 130.983 332.528 144.003 296.159 180.28C285.864 190.549 277.44 202.158 270.995 214.637V202.82C270.995 193.47 267.345 184.679 260.715 178.066L252.387 169.759C263.619 123.275 250.03 74.398 215.839 40.294C179.472 4.017 126.346 -9.004 77.1861 6.314C72.4881 7.778 68.8071 11.454 67.3361 16.15C51.9681 65.218 65.0261 118.247 101.414 154.543C135.191 188.235 183.965 202.321 231.169 190.958L239.537 199.304C240.483 200.247 241.003 201.495 241.003 202.818V386.195C213.016 390.97 188.573 408.873 175.611 434.369H153.07C118.643 434.369 90.6351 462.466 90.6351 497C90.6351 505.283 97.3491 511.999 105.631 511.999H406.369C414.651 511.999 421.365 505.284 421.365 497C421.365 462.466 393.357 434.37 358.93 434.37ZM317.339 201.521C343.905 175.022 381.908 164.383 418.156 172.836C426.609 208.949 415.948 246.817 389.407 273.291C367.367 295.274 337.457 306.329 307.206 304.637L380.381 231.649C386.246 225.799 386.258 216.303 380.41 210.438C374.56 204.573 365.064 204.56 359.202 210.409L285.933 283.492C284.228 253.33 295.304 223.499 317.339 201.521ZM226.068 143.504L152.797 70.42C146.932 64.57 137.437 64.583 131.589 70.449C125.741 76.314 125.754 85.811 131.618 91.66L204.803 164.659C175.117 166.323 145.026 155.68 122.594 133.303C96.0511 106.827 85.3881 68.963 93.8441 32.848C130.091 24.398 168.097 35.036 194.662 61.533C216.698 83.513 227.775 113.343 226.068 143.504ZM124.261 482.003C129.669 471.534 140.553 464.367 153.069 464.367H185.409C191.703 464.367 197.328 460.436 199.491 454.524C208.162 430.832 230.871 414.914 255.999 414.914C281.127 414.914 303.837 430.832 312.507 454.524C314.671 460.436 320.295 464.367 326.589 464.367H358.929C371.445 464.367 382.329 471.533 387.737 482.003H124.261Z" fill="#464BDF"/>
</g>
<defs>
<clipPath id="clip0_1_27">
<rect width="511.999" height="511.999" fill="white"/>
</clipPath>
</defs>
</svg>
