<svg width="512" height="512" viewBox="0 0 512 512" fill="none" xmlns="http://www.w3.org/2000/svg">
<g clip-path="url(#clip0_1_46)">
<path d="M491.941 262.776H392.134C390.699 250.601 387.89 238.842 383.859 227.659H493.488C501.74 227.659 508.455 221.018 508.545 212.766C509.851 93.9751 413.961 -1.52588e-05 298.304 -1.52588e-05C289.988 -1.52588e-05 283.245 6.74232 283.245 15.0588V130.03C272.29 126.453 260.819 124.034 248.971 122.918V66.1383C248.971 57.8219 242.229 51.0795 233.913 51.0795C106.538 51.0795 3.44238 154.152 3.44238 281.541C3.44238 408.908 106.526 512 233.913 512C284.902 512 333.223 495.681 373.652 464.808C380.303 459.729 381.522 450.212 376.42 443.621L341.701 398.767C352.015 389.275 361.077 378.444 368.61 366.551L411.956 422.552C417.023 429.097 426.424 430.327 433.004 425.301C479.351 389.904 506.321 336.219 506.998 278.01C507.095 269.626 500.32 262.776 491.941 262.776V262.776ZM313.363 30.733C400.12 37.8579 471.725 107.449 477.995 197.541H369.244C355.361 175.252 336.136 156.621 313.363 143.464V30.733ZM342.982 449.625C310.545 470.776 273.139 481.882 233.913 481.882C123.438 481.882 33.56 392.009 33.56 281.54C33.56 176.134 115.384 89.4785 218.854 81.7563V122.916C138.028 130.526 74.5682 198.755 74.5682 281.539C74.5682 369.398 146.046 440.876 233.906 440.876C264.637 440.876 293.357 432.122 317.722 416.991L342.982 449.625ZM233.906 410.759C162.653 410.759 104.686 352.791 104.686 281.539C104.686 210.285 162.653 152.318 233.906 152.318C305.158 152.318 363.125 210.285 363.125 281.539C363.125 352.791 305.158 410.759 233.906 410.759ZM426.192 391.738L383.46 336.531C388.536 322.771 391.757 308.125 392.834 292.894H475.983C471.913 330.904 454.351 365.77 426.192 391.738V391.738Z" fill="#464BDF"/>
<path d="M250.076 266.48H217.735C210.023 266.48 203.75 260.206 203.75 252.494C203.75 244.759 210.011 238.51 217.731 238.51C217.805 238.511 217.877 238.511 217.949 238.511H248.921C254.447 238.566 259.912 241.048 263.921 245.326C269.609 251.394 279.137 251.704 285.206 246.016C291.274 240.329 291.584 230.8 285.897 224.731C275.825 213.984 262.032 208.394 248.964 208.394V195.276C248.964 186.959 242.221 180.217 233.905 180.217C225.588 180.217 218.846 186.959 218.846 195.276V208.394C191.698 208.394 173.632 229.375 173.632 252.495C173.632 276.814 193.417 296.599 217.735 296.599H250.076C257.787 296.599 264.061 302.872 264.061 310.583C264.061 318.017 258.187 324.568 249.861 324.568H216.069C212.167 324.528 208.021 323.12 204.39 320.601C197.557 315.859 188.174 317.557 183.434 324.389C178.693 331.223 180.389 340.604 187.221 345.346C197.789 352.678 207.451 354.685 218.845 354.685V367.804C218.845 376.12 225.587 382.863 233.904 382.863C242.22 382.863 248.963 376.12 248.963 367.804V354.685C276.335 354.685 294.177 333.5 294.177 310.583C294.179 286.264 274.395 266.48 250.076 266.48V266.48Z" fill="#464BDF"/>
</g>
<defs>
<clipPath id="clip0_1_46">
<rect width="512" height="512" fill="white"/>
</clipPath>
</defs>
</svg>
