<svg xmlns="http://www.w3.org/2000/svg" width="250" height="55.1" viewBox="0 0 250 55.1"><defs><style>.a{fill:#fff;}</style></defs><g transform="translate(-540 -448)"><g transform="translate(540 448)"><g transform="translate(0 0)"><g transform="translate(43.546 2.932)"><path class="a" d="M-98.7-318.422v7.4h7.425a1.909,1.909,0,0,1,1.909,1.909h0a1.909,1.909,0,0,1-1.909,1.909H-98.7v7.545h7.877a3.967,3.967,0,0,1,3.967,3.967h-14.915a1.909,1.909,0,0,1-1.909-1.909v-22.857a1.909,1.909,0,0,1,1.909-1.909h14.915a3.948,3.948,0,0,1-3.948,3.948Z" transform="translate(103.676 322.665)"/><path class="a" d="M-12.727-322.37l-9.934,24.6a3.323,3.323,0,0,1-3.081,2.078h0a3.323,3.323,0,0,1-3.081-2.078l-9.934-24.6h3.985a1.671,1.671,0,0,1,1.051.314,1.922,1.922,0,0,1,.609.812l6.291,16.271q.313.793.6,1.743t.544,1.983q.221-1.033.479-1.983a16.52,16.52,0,0,1,.572-1.743l6.254-16.271a1.745,1.745,0,0,1,.581-.775,1.634,1.634,0,0,1,1.061-.351Z" transform="translate(58.044 322.665)"/><path class="a" d="M76.943-309.731a14.907,14.907,0,0,1-.969,5.433,12.75,12.75,0,0,1-2.739,4.326,12.449,12.449,0,0,1-4.261,2.851,14.432,14.432,0,0,1-5.535,1.024,14.38,14.38,0,0,1-5.516-1.024,12.545,12.545,0,0,1-4.271-2.851,12.79,12.79,0,0,1-2.758-4.326,14.786,14.786,0,0,1-.978-5.433,14.789,14.789,0,0,1,.978-5.433,12.793,12.793,0,0,1,2.758-4.326,12.544,12.544,0,0,1,4.271-2.85,14.375,14.375,0,0,1,5.516-1.024,14.967,14.967,0,0,1,3.819.471,13.413,13.413,0,0,1,3.284,1.328,12.14,12.14,0,0,1,2.684,2.085,12.688,12.688,0,0,1,2.02,2.74,13.422,13.422,0,0,1,1.264,3.283A15.641,15.641,0,0,1,76.943-309.731Zm-5.073,0a12.251,12.251,0,0,0-.59-3.939A8.447,8.447,0,0,0,69.6-316.63a7.194,7.194,0,0,0-2.647-1.863,9.116,9.116,0,0,0-3.515-.646,9.113,9.113,0,0,0-3.514.646,7.275,7.275,0,0,0-2.657,1.863,8.363,8.363,0,0,0-1.688,2.961,12.243,12.243,0,0,0-.59,3.939,12.24,12.24,0,0,0,.59,3.939,8.266,8.266,0,0,0,1.688,2.952,7.319,7.319,0,0,0,2.657,1.854,9.1,9.1,0,0,0,3.514.646,9.1,9.1,0,0,0,3.515-.646A7.238,7.238,0,0,0,69.6-302.84a8.348,8.348,0,0,0,1.679-2.952A12.248,12.248,0,0,0,71.869-309.731Z" transform="translate(-4.286 323.364)"/><path class="a" d="M169.836-295.694H153.5a.889.889,0,0,1-.889-.889v-24.9a.889.889,0,0,1,.889-.889h3.185a.889.889,0,0,1,.889.889v21.692h8.164A4.1,4.1,0,0,1,169.836-295.694Z" transform="translate(-76.474 322.665)"/><path class="a" d="M224.6-299.7a6.548,6.548,0,0,0,2.573-.48,5.271,5.271,0,0,0,1.91-1.347,5.96,5.96,0,0,0,1.19-2.1,8.655,8.655,0,0,0,.415-2.767v-11.014a4.962,4.962,0,0,1,4.962-4.963h0v15.976a12.323,12.323,0,0,1-.765,4.4,10.025,10.025,0,0,1-2.2,3.487,9.96,9.96,0,0,1-3.478,2.288,12.3,12.3,0,0,1-4.612.821,12.356,12.356,0,0,1-4.63-.821,9.958,9.958,0,0,1-3.478-2.288,10.011,10.011,0,0,1-2.2-3.487,12.317,12.317,0,0,1-.766-4.4V-322.37h0a4.962,4.962,0,0,1,4.962,4.963v11a8.663,8.663,0,0,0,.415,2.767,5.974,5.974,0,0,0,1.2,2.112,5.311,5.311,0,0,0,1.919,1.356A6.551,6.551,0,0,0,224.6-299.7Z" transform="translate(-119.293 322.665)"/><path class="a" d="M318.885-318.293h-7.152v21.708a.891.891,0,0,1-.891.891h-3.18a.891.891,0,0,1-.891-.891v-21.708h-7.152a.891.891,0,0,1-.891-.891v-2.294a.891.891,0,0,1,.891-.891h19.267a.891.891,0,0,1,.891.891v2.294A.891.891,0,0,1,318.885-318.293Z" transform="translate(-179.179 322.665)"/><path class="a" d="M381.377-295.694h0v-21.7a4.981,4.981,0,0,1,4.981-4.981h0v21.695A4.981,4.981,0,0,1,381.377-295.694Z" transform="translate(-237.275 322.665)"/><path class="a" d="M438.092-309.731a14.906,14.906,0,0,1-.969,5.433,12.75,12.75,0,0,1-2.739,4.326,12.451,12.451,0,0,1-4.261,2.851,14.432,14.432,0,0,1-5.534,1.024,14.38,14.38,0,0,1-5.516-1.024,12.545,12.545,0,0,1-4.271-2.851,12.79,12.79,0,0,1-2.758-4.326,14.786,14.786,0,0,1-.978-5.433,14.789,14.789,0,0,1,.978-5.433,12.792,12.792,0,0,1,2.758-4.326,12.544,12.544,0,0,1,4.271-2.85,14.374,14.374,0,0,1,5.516-1.024,14.968,14.968,0,0,1,3.819.471,13.415,13.415,0,0,1,3.283,1.328,12.136,12.136,0,0,1,2.684,2.085,12.676,12.676,0,0,1,2.02,2.74,13.423,13.423,0,0,1,1.264,3.283A15.641,15.641,0,0,1,438.092-309.731Zm-5.073,0a12.251,12.251,0,0,0-.59-3.939,8.45,8.45,0,0,0-1.679-2.961,7.194,7.194,0,0,0-2.647-1.863,9.115,9.115,0,0,0-3.514-.646,9.113,9.113,0,0,0-3.514.646,7.272,7.272,0,0,0-2.657,1.863,8.359,8.359,0,0,0-1.688,2.961,12.242,12.242,0,0,0-.59,3.939,12.24,12.24,0,0,0,.59,3.939,8.262,8.262,0,0,0,1.688,2.952,7.317,7.317,0,0,0,2.657,1.854,9.1,9.1,0,0,0,3.514.646,9.1,9.1,0,0,0,3.514-.646,7.238,7.238,0,0,0,2.647-1.854,8.351,8.351,0,0,0,1.679-2.952A12.248,12.248,0,0,0,433.018-309.731Z" transform="translate(-258.143 323.364)"/><path class="a" d="M538.046-322.37v25.751a.925.925,0,0,1-.925.925H535.5a2.241,2.241,0,0,1-.987-.194,2.3,2.3,0,0,1-.766-.655l-13.929-17.784q.111,1.217.111,2.25v15.812a.57.57,0,0,1-.57.57h-3.233a.57.57,0,0,1-.57-.57V-321.8a.569.569,0,0,1,.569-.569h2.033a4.651,4.651,0,0,1,.544.028,1.317,1.317,0,0,1,.406.111,1.336,1.336,0,0,1,.341.24,3.869,3.869,0,0,1,.369.415L533.8-303.719q-.055-.646-.092-1.273t-.037-1.162V-318a4.372,4.372,0,0,1,4.372-4.372Z" transform="translate(-331.592 322.665)"/></g><path class="a" d="M-190.9-292.763h0a5.02,5.02,0,0,1,2.245-6.735l7.775-3.887a.966.966,0,0,0,0-1.727L-188.653-309a5.02,5.02,0,0,1-2.245-6.735h0l14,7a5.015,5.015,0,0,1,0,8.971Z" transform="translate(208.905 320.934)"/><path class="a" d="M-245.234-319.06v-6.9a1.826,1.826,0,0,1,2.642-1.633l1.557.779a5.019,5.019,0,0,0,6.735-2.245l-7.025-3.513a6.169,6.169,0,0,0-8.928,5.518v20.352a6.579,6.579,0,0,0,9.521,5.885l6.432-3.216h0a5.02,5.02,0,0,0-6.735-2.245l-1.557.779a1.825,1.825,0,0,1-2.642-1.632v-6.9" transform="translate(250.254 333.235)"/><rect class="a" width="10.268" height="6.161" rx="3.08" transform="translate(8.429 13.478)"/></g><g transform="translate(111.389 44.829)"><path class="a" d="M127.757-171.672h-3.071v-9.692h2.662a2.635,2.635,0,0,1,2.935,2.576,2.4,2.4,0,0,1-.853,1.86,3.607,3.607,0,0,1-.29.239,2.515,2.515,0,0,1,1.587,2.354A2.678,2.678,0,0,1,127.757-171.672Zm-.58-8.839h-1.485v3.4h1.928a5,5,0,0,1,.682.051l.239-.171a1.835,1.835,0,0,0,.7-1.5C129.242-179.863,128.491-180.511,127.177-180.511Zm.136,4.232h-1.621v3.72H127.6a1.883,1.883,0,0,0,2.082-1.86C129.685-175.46,128.832-176.279,127.314-176.279Z" transform="translate(-124.686 181.654)"/><path class="a" d="M150.156-175.75v4.078H149.15v-4.078l-3.157-5.614h1.143l2.508,4.743,2.508-4.743H153.3Z" transform="translate(-139.663 181.654)"/><path class="a" d="M188.755-171.672h-3.02v-9.692h2.935c2.781,0,5.443,1.757,5.443,4.88C194.113-173.328,191.519-171.672,188.755-171.672Zm-.034-8.787h-1.979v7.849h2.065c2.355,0,4.266-1.4,4.266-3.873A4.041,4.041,0,0,0,188.721-180.46Z" transform="translate(-167.598 181.654)"/><path class="a" d="M220.883-171.672v-9.692h1.007v9.692Z" transform="translate(-192.304 181.654)"/><path class="a" d="M238.711-176.5h1.007v3.583a6.433,6.433,0,0,1-1.058.495,6.948,6.948,0,0,1-2.286.358,5.118,5.118,0,0,1-5.153-5.119,5.179,5.179,0,0,1,5.153-5.153,7.4,7.4,0,0,1,3.293.819v1.041a6.8,6.8,0,0,0-3.276-.972,4.2,4.2,0,0,0-4.129,4.249,4.16,4.16,0,0,0,4.129,4.249,6.216,6.216,0,0,0,2.321-.461Z" transform="translate(-199.57 182.34)"/><path class="a" d="M267.746-171.672v-9.692h5.443v.9h-4.436v3.447h3.413v.887h-3.413v3.549h4.658v.9Z" transform="translate(-225.245 181.654)"/><path class="a" d="M294.083-171.672h-.836l-3.447-9.692h1.058l2.457,7.149.341,1.092.358-1.092,2.44-7.149h1.075Z" transform="translate(-240.747 181.654)"/><path class="a" d="M322.893-172.068a5.122,5.122,0,0,1-5.238-5.136,5.121,5.121,0,0,1,5.238-5.136,5.121,5.121,0,0,1,5.238,5.136A5.121,5.121,0,0,1,322.893-172.068Zm0-9.385a4.173,4.173,0,0,0-4.2,4.249,4.173,4.173,0,0,0,4.2,4.249,4.173,4.173,0,0,0,4.2-4.249A4.173,4.173,0,0,0,322.893-181.453Z" transform="translate(-260.327 182.34)"/><path class="a" d="M370.525-171.672h-.836l-3.446-9.692H367.3l2.457,7.149.341,1.092.358-1.092,2.44-7.149h1.075Z" transform="translate(-294.479 181.654)"/><path class="a" d="M397.081-171.672v-9.692h5.443v.9h-4.436v3.447H401.5v.887h-3.413v3.549h4.658v.9Z" transform="translate(-316.156 181.654)"/><path class="a" d="M429.738-171.672v-2.013l-5.921-5.921v7.934h-1.007v-9.692h.614l6.313,6.313v-6.313h1.007v9.692Z" transform="translate(-334.242 181.654)"/><path class="a" d="M458.759-180.477v8.8h-1.007v-8.8H454.34v-.887h7.832v.887Z" transform="translate(-356.405 181.654)"/><path class="a" d="M491.534-171.672v-1.518a3.678,3.678,0,0,1-3.123,1.689,3.165,3.165,0,0,1-3.173-3.464v-6.4h1.024v6.4a2.314,2.314,0,0,0,2.286,2.594,3.567,3.567,0,0,0,2.986-2.133v-6.859h1.007v9.692Z" transform="translate(-378.123 181.654)"/><path class="a" d="M524.189-171.5a1.65,1.65,0,0,1-1.5-.955l-2.218-3.293h-1.143v4.078h-1.007v-9.692h2.252c2.065,0,3.276,1.092,3.276,2.8a2.766,2.766,0,0,1-2.269,2.713l2.014,2.935c.273.392.529.614.819.614a.848.848,0,0,0,.648-.324l.376.375A1.413,1.413,0,0,1,524.189-171.5Zm-3.72-8.975h-1.143v3.924H520.4c1.143,0,2.406-.5,2.406-2.031C522.806-179.845,522.022-180.477,520.469-180.477Z" transform="translate(-401.376 181.654)"/><path class="a" d="M545.943-171.672v-9.692h5.443v.9H546.95v3.447h3.413v.887H546.95v3.549h4.658v.9Z" transform="translate(-420.794 181.654)"/><path class="a" d="M572.444-172.046a5.583,5.583,0,0,1-2.61-.7v-1.109a5.8,5.8,0,0,0,2.61.9c1.126,0,2.014-.6,2.014-1.6,0-.785-.8-1.417-1.4-1.809l-1.485-.972a2.943,2.943,0,0,1-1.621-2.423,2.479,2.479,0,0,1,2.747-2.526,4.819,4.819,0,0,1,2.218.563v1.024a4.67,4.67,0,0,0-2.218-.7,1.585,1.585,0,0,0-1.758,1.553c0,.8.682,1.3,1.348,1.741l1.416.938a3.2,3.2,0,0,1,1.774,2.577C575.482-173.018,574.2-172.046,572.444-172.046Z" transform="translate(-437.587 182.301)"/></g></g></g></svg>