<svg width="1920" height="664" viewBox="0 0 1920 664" fill="none" xmlns="http://www.w3.org/2000/svg">
<g clip-path="url(#clip0_66_62)">
<path d="M1912.72 247.484C1904.06 247.481 1895.54 249.672 1887.96 253.854C1880.38 258.035 1873.99 264.07 1869.37 271.394C1860.1 255.6 1846.06 243.156 1829.27 235.859C1812.47 228.562 1793.79 226.787 1775.92 230.792C1758.06 234.797 1741.92 244.374 1729.85 258.141C1717.77 271.909 1710.39 289.156 1708.75 307.394C1699.21 302.163 1688 300.897 1677.53 303.871C1667.07 306.846 1658.2 313.82 1652.83 323.286C1650.09 319.736 1646.9 316.559 1643.33 313.835C1636.35 308.502 1628.1 305.056 1619.4 303.829C1610.69 302.602 1601.82 303.634 1593.63 306.827C1585.44 310.019 1578.21 315.265 1572.63 322.06C1567.05 328.854 1563.32 336.97 1561.78 345.625C1549.25 338.51 1535.14 334.64 1520.73 334.368C1506.33 334.095 1492.08 337.429 1479.29 344.065C1466.5 350.702 1455.57 360.431 1447.5 372.367C1439.42 384.303 1434.46 398.068 1433.07 412.41C1425.85 410.842 1418.39 410.85 1411.18 412.434C1403.97 414.018 1397.19 417.141 1391.29 421.588C1385.4 426.036 1380.54 431.703 1377.04 438.203C1373.55 444.703 1371.49 451.881 1371.03 459.248C1364.34 456.756 1357.12 456.035 1350.08 457.155C1343.03 458.275 1336.39 461.198 1330.81 465.641C1327.42 455.88 1321.74 447.077 1314.23 439.978C1306.72 432.879 1297.62 427.691 1287.68 424.855C1277.75 422.018 1267.28 421.615 1257.16 423.68C1247.03 425.746 1237.56 430.218 1229.53 436.72C1218.63 422.496 1204.13 411.436 1187.53 404.678C1170.93 397.92 1152.84 395.709 1135.1 398.273C1117.36 400.836 1100.63 408.082 1086.63 419.263C1072.62 430.444 1061.85 445.156 1055.43 461.884C1049.27 456.764 1042.13 452.971 1034.44 450.74C1026.75 448.51 1018.69 447.891 1010.75 448.923C1002.82 449.954 995.176 452.614 988.314 456.735C981.453 460.856 975.516 466.35 970.876 472.872C967.453 468.183 963.108 464.242 958.108 461.291C953.108 458.34 947.559 456.441 941.799 455.711C936.039 454.98 930.191 455.434 924.613 457.044C919.035 458.653 913.844 461.385 909.359 465.072C907.27 456.557 903.283 448.624 897.696 441.867C892.109 435.11 885.067 429.704 877.096 426.052C869.125 422.4 860.432 420.597 851.666 420.779C842.9 420.96 834.289 423.121 826.476 427.1C821.656 410.61 812.701 395.625 800.46 383.569C788.22 371.513 773.101 362.786 756.54 358.216C739.978 353.647 722.523 353.386 705.833 357.46C689.142 361.534 673.77 369.806 661.176 381.492C657.091 366.543 648.597 353.171 636.801 343.12C625.005 333.069 610.454 326.806 595.046 325.146C579.638 323.487 564.087 326.508 550.421 333.817C536.755 341.126 525.609 352.382 518.435 366.119C511.919 357.738 503.232 351.301 493.318 347.506C483.403 343.711 472.638 342.704 462.192 344.593C451.745 346.482 442.015 351.196 434.057 358.222C426.099 365.249 420.217 374.321 417.049 384.453C400.184 370.674 379.309 362.728 357.551 361.805C335.792 360.883 314.32 367.032 296.349 379.334C292.157 369.337 285.255 360.711 276.421 354.43C267.587 348.148 257.173 344.461 246.354 343.784C235.535 343.107 224.743 345.468 215.195 350.6C205.647 355.732 197.723 363.431 192.319 372.827C182.739 363.988 171.076 357.719 158.418 354.606C145.76 351.493 132.52 351.636 119.933 355.022C117.836 341.529 113.023 328.602 105.783 317.023C98.5444 305.445 89.0304 295.457 77.8179 287.663C66.6053 279.869 53.9277 274.433 40.5525 271.682C27.1773 268.932 13.3829 268.925 0.00488281 271.662V662.027H1920V248.01C1917.59 247.663 1915.16 247.487 1912.72 247.484Z" fill="url(#paint0_linear_66_62)"/>
<path d="M1861.45 330.453C1844.3 330.427 1827.52 335.463 1813.22 344.931C1805.55 327.5 1792.33 313.091 1775.63 303.942C1758.93 294.794 1739.67 291.417 1720.85 294.338C1702.03 297.259 1684.71 306.314 1671.56 320.095C1658.42 333.876 1650.19 351.613 1648.17 370.549C1640.97 368.402 1633.32 368.254 1626.05 370.122C1618.77 371.989 1612.14 375.801 1606.86 381.149C1601.59 386.497 1597.87 393.18 1596.1 400.481C1594.33 407.783 1594.58 415.427 1596.83 422.596C1588.44 421.363 1579.88 422.231 1571.91 425.121C1563.94 428.011 1556.82 432.833 1551.17 439.155C1542.06 420.449 1526.51 405.657 1507.37 397.493C1488.24 389.329 1466.8 388.342 1446.99 394.712C1427.18 401.083 1410.34 414.383 1399.55 432.173C1388.76 449.962 1384.75 471.046 1388.25 491.555C1379.55 489.114 1370.4 488.681 1361.5 490.289C1352.6 491.896 1344.18 495.503 1336.87 500.836C1329.57 506.169 1323.57 513.09 1319.33 521.078C1315.09 529.066 1312.71 537.912 1312.39 546.95C1305.14 544.751 1297.42 544.584 1290.08 546.468C1282.75 548.352 1276.07 552.214 1270.77 557.633C1266.95 542.5 1257.76 529.272 1244.91 520.412C1232.06 511.553 1216.43 507.667 1200.93 509.479C1185.42 511.29 1171.11 518.675 1160.65 530.258C1150.18 541.841 1144.29 556.832 1144.06 572.438C1134.83 567.02 1124.28 564.255 1113.57 564.449C1102.87 564.643 1092.42 567.788 1083.39 573.538C1083.39 573.188 1083.4 572.838 1083.4 572.488C1083.41 552.885 1077.69 533.707 1066.96 517.303C1056.22 500.899 1040.94 487.982 1022.97 480.134C1005.01 472.286 985.149 469.847 965.82 473.117C946.491 476.387 928.536 485.223 914.153 498.543C909.19 489.727 901.647 482.643 892.537 478.243C883.427 473.844 873.189 472.34 863.199 473.934C862.467 455.923 855.242 438.785 842.858 425.686C830.474 412.588 813.768 404.414 795.826 402.674C777.884 400.935 759.918 405.748 745.249 416.224C730.579 426.7 720.197 442.132 716.02 459.667C706.983 452.792 696.423 448.197 685.234 446.268C674.045 444.34 662.556 445.136 651.74 448.59C640.923 452.043 631.098 458.052 623.096 466.107C615.095 474.163 609.152 484.028 605.771 494.867C599.263 490.561 591.811 487.894 584.049 487.092C576.287 486.29 568.446 487.377 561.196 490.261C561.225 489.328 561.245 488.393 561.245 487.453C561.242 471.984 557.194 456.786 549.503 443.365C541.812 429.944 530.745 418.767 517.401 410.944C504.057 403.12 488.899 398.922 473.431 398.766C457.963 398.61 442.723 402.501 429.224 410.053C427.655 399.784 423.364 390.124 416.796 382.076C410.228 374.028 401.624 367.887 391.878 364.291C382.132 360.696 371.601 359.777 361.38 361.631C351.159 363.485 341.622 368.044 333.76 374.833C321.545 358.186 304.512 345.692 284.965 339.041C265.417 332.391 244.299 331.905 224.466 337.65C204.634 343.395 187.044 355.092 174.077 371.161C161.11 387.229 153.392 406.892 151.966 427.491C137.153 421.906 121.234 419.884 105.495 421.589C89.7561 423.294 74.6392 428.678 61.366 437.306C55.5142 425.689 46.8196 415.741 36.0911 408.386C25.3625 401.032 12.9483 396.51 0.00292969 395.241V663.527H1920V352.915C1903.95 338.429 1883.08 330.424 1861.45 330.453Z" fill="url(#paint1_linear_66_62)"/>
<path d="M1168.69 267.901C1168.69 267.901 1167.14 302.287 1148.09 406.326C1129.03 510.364 1057.96 548.677 1057.96 548.677L1088.19 579.998L1247.1 575.66L1337.77 540.393C1337.77 540.393 1272.11 463.118 1255.96 384.821C1239.82 306.525 1240.98 267.905 1240.98 267.905L1168.69 267.901Z" fill="url(#paint2_linear_66_62)"/>
<path d="M1184.77 267.901C1184.77 267.901 1184.92 296.013 1176.45 400.548C1172 455.465 1154.64 525.768 1135.69 562.839C1118.58 596.339 1098.52 611.699 1098.52 611.699L1162.9 654.637L1259.04 663.027L1337.78 629.098C1337.78 629.098 1307.84 608.908 1287.99 577.481C1260.53 534.016 1240.18 469.06 1235.47 406.296C1227.35 298.151 1227.39 267.898 1227.39 267.898L1184.77 267.901Z" fill="white"/>
<path d="M1144.53 221.325C1138.99 221.307 1113.32 239.298 1107.87 254.419C1102.42 269.539 1113.56 317.677 1117.74 317.677C1120.74 317.677 1123.64 309.27 1125.03 304.543C1125.9 301.414 1127.58 298.553 1129.91 296.224C1132.23 293.896 1135.12 292.177 1138.32 291.228C1140.13 290.718 1142.01 290.459 1143.9 290.459H1154.43L1144.53 221.325Z" fill="#FFA577"/>
<path d="M1146.58 235.67C1140.64 237.554 1134.98 240.201 1129.76 243.541C1121.36 249.263 1116.36 253.467 1113.46 260.227C1110.56 266.988 1114.2 302.472 1116.96 308.229C1119.72 313.986 1124.15 307.355 1124.15 307.355V307.382C1123.91 308.086 1123.65 308.814 1123.38 309.539C1123.32 309.71 1123.25 309.881 1123.18 310.058C1123.15 310.141 1123.12 310.223 1123.08 310.298C1123 310.518 1122.91 310.73 1122.82 310.949C1122.81 310.983 1122.8 311.024 1122.78 311.058C1122.68 311.319 1122.57 311.572 1122.46 311.825C1122.33 312.116 1122.2 312.399 1122.07 312.681C1121.99 312.866 1121.9 313.052 1121.81 313.228C1121.76 313.344 1121.7 313.461 1121.65 313.57C1121.52 313.81 1121.4 314.043 1121.27 314.269C1121.07 314.64 1120.86 314.995 1120.64 315.322C1120.35 315.777 1120.02 316.207 1119.66 316.61C1119.42 316.868 1119.15 317.096 1118.86 317.289C1118.79 317.337 1118.71 317.38 1118.64 317.42C1118.51 317.49 1118.38 317.545 1118.25 317.585C1118.21 317.605 1118.16 317.618 1118.12 317.625H1118.11C1118.05 317.643 1117.98 317.655 1117.92 317.659C1117.85 317.667 1117.78 317.672 1117.72 317.673C1113.54 317.673 1102.41 269.534 1107.86 254.411C1113.31 239.288 1138.97 221.299 1144.51 221.318L1146.58 235.67Z" fill="#FFC9AD"/>
<path d="M1154.43 290.458H1143.9C1142.01 290.458 1140.14 290.716 1138.32 291.224C1137.33 291.506 1136.36 291.866 1135.42 292.303C1135.64 292.132 1145.19 286.197 1146.58 276.489C1147.98 266.781 1147.55 242.451 1147.55 242.451L1154.43 290.458Z" fill="#F56E3F"/>
<path d="M1265.93 221.325C1271.47 221.307 1297.13 239.298 1302.58 254.419C1308.03 269.539 1296.9 317.677 1292.72 317.677C1289.72 317.677 1286.82 309.27 1285.43 304.543C1284.56 301.414 1282.88 298.552 1280.55 296.224C1278.23 293.896 1275.34 292.177 1272.14 291.227C1270.33 290.717 1268.45 290.458 1266.57 290.458H1256.04L1265.93 221.325Z" fill="#F36432"/>
<path d="M1256.03 290.458H1266.56C1268.45 290.459 1270.33 290.717 1272.14 291.225C1273.13 291.507 1274.1 291.867 1275.04 292.304C1274.82 292.132 1265.27 286.198 1263.88 276.49C1262.48 266.782 1262.91 242.452 1262.91 242.452L1256.03 290.458Z" fill="#C93F0D"/>
<path d="M1263.87 235.67C1269.82 237.554 1275.47 240.201 1280.7 243.541C1289.1 249.263 1294.09 253.467 1297 260.227C1299.9 266.988 1296.26 302.472 1293.5 308.229C1290.73 313.986 1286.31 307.355 1286.31 307.355V307.382C1286.55 308.086 1286.8 308.814 1287.07 309.539C1287.13 309.71 1287.2 309.881 1287.27 310.058C1287.3 310.141 1287.34 310.223 1287.37 310.298C1287.46 310.518 1287.54 310.73 1287.63 310.949C1287.65 310.983 1287.66 311.024 1287.67 311.058C1287.78 311.319 1287.89 311.572 1288 311.825C1288.13 312.116 1288.25 312.399 1288.38 312.681C1288.46 312.866 1288.56 313.052 1288.64 313.228C1288.7 313.344 1288.76 313.461 1288.81 313.57C1288.94 313.81 1289.06 314.043 1289.19 314.269C1289.39 314.64 1289.6 314.995 1289.81 315.322C1290.1 315.777 1290.43 316.207 1290.8 316.61C1291.04 316.867 1291.31 317.096 1291.6 317.289C1291.67 317.337 1291.74 317.38 1291.82 317.42C1291.94 317.49 1292.07 317.545 1292.21 317.585C1292.25 317.604 1292.29 317.618 1292.34 317.625H1292.35C1292.41 317.643 1292.47 317.655 1292.54 317.659C1292.61 317.667 1292.67 317.672 1292.74 317.673C1296.92 317.673 1308.05 269.534 1302.6 254.411C1297.15 239.288 1271.49 221.299 1265.94 221.318L1263.87 235.67Z" fill="#C93F0D"/>
<path d="M1260.36 62.2513C1241.43 26.4652 1218.96 0.00195312 1205.23 0.00195312C1191.5 0.00195312 1166.99 28.9821 1150.1 62.2513C1133.2 95.5205 1132.5 123.357 1135.04 154.984L1154.43 290.454H1256.03L1275.42 154.99C1277.96 123.356 1279.28 98.0364 1260.36 62.2513Z" fill="white"/>
<path d="M1239.3 28.2965H1218.24C1230.22 46.2099 1248.45 83.8575 1250.54 117.272C1252.63 150.687 1239.81 274.004 1218.66 274.004H1167.65C1159.45 274.004 1144.53 221.326 1144.53 221.326L1154.43 290.463L1154.77 292.843C1155.15 295.502 1156.51 297.938 1158.59 299.7C1160.68 301.463 1163.35 302.434 1166.11 302.434H1244.34C1247.11 302.434 1249.78 301.463 1251.86 299.7C1253.95 297.937 1255.31 295.502 1255.69 292.843L1256.03 290.463L1275.42 154.995C1277.96 123.361 1279.28 98.0383 1260.35 62.2551C1254.19 50.4556 1247.16 39.1063 1239.3 28.2965V28.2965Z" fill="#E3EBFF"/>
<path d="M1212.89 172.008C1239.61 172.008 1261.26 152.206 1261.26 127.778C1261.26 103.35 1239.61 83.5479 1212.89 83.5479C1186.18 83.5479 1164.52 103.35 1164.52 127.778C1164.52 152.206 1186.18 172.008 1212.89 172.008Z" fill="#E3EBFF"/>
<path d="M1224.65 233.436C1224.65 233.436 1227.93 257.746 1233.4 264.764C1238.86 271.781 1205.4 277.6 1205.4 277.6L1224.65 233.436Z" fill="#E3EBFF"/>
<path d="M1239.31 28.2956H1171.08C1183.67 11.4824 1196.58 0.00195338 1205.23 0.00195338C1214.06 1.13375e-05 1226.52 10.9551 1239.31 28.2956Z" fill="#F36432"/>
<path d="M1154.77 292.839C1155.15 295.498 1156.51 297.933 1158.59 299.696C1160.68 301.459 1163.35 302.43 1166.11 302.43H1244.34C1247.11 302.43 1249.78 301.459 1251.86 299.696C1253.95 297.934 1255.31 295.498 1255.69 292.839L1256.03 290.459H1154.43L1154.77 292.839Z" fill="#C93F0D"/>
<path d="M1224.65 233.436C1223.71 227.64 1212.04 216.724 1205.4 216.724C1198.76 216.724 1187.09 227.64 1186.15 233.436C1185.22 239.232 1199.45 321.71 1205.4 321.71C1211.35 321.71 1225.59 239.231 1224.65 233.436Z" fill="#FFA577"/>
<path d="M1205.4 167.472C1230.56 167.472 1250.95 147.67 1250.95 123.242C1250.95 98.8146 1230.56 79.0121 1205.4 79.0121C1180.25 79.0121 1159.85 98.8146 1159.85 123.242C1159.85 147.67 1180.25 167.472 1205.4 167.472Z" fill="#FFA577"/>
<path d="M1205.43 159.036C1225.79 159.036 1242.29 143.009 1242.29 123.239C1242.29 103.469 1225.79 87.4425 1205.43 87.4425C1185.07 87.4425 1168.56 103.469 1168.56 123.239C1168.56 143.009 1185.07 159.036 1205.43 159.036Z" fill="#F56E3F"/>
<path d="M1250.95 123.239C1250.95 132.82 1247.74 142.14 1241.82 149.8C1235.89 157.46 1227.57 163.045 1218.09 165.715C1208.62 168.384 1198.5 167.995 1189.28 164.605C1180.05 161.215 1172.2 155.007 1166.92 146.916C1175.66 152.291 1186.03 154.616 1196.32 153.508C1206.6 152.4 1216.19 147.925 1223.51 140.82C1230.83 133.715 1235.43 124.403 1236.58 114.416C1237.72 104.429 1235.32 94.362 1229.79 85.8723C1236.27 89.8609 1241.62 95.379 1245.32 101.913C1249.02 108.446 1250.96 115.783 1250.95 123.239V123.239Z" fill="#F56E3F"/>
<path d="M1205.4 155.492C1223.75 155.492 1238.62 141.053 1238.62 123.242C1238.62 105.431 1223.75 90.9927 1205.4 90.9927C1187.06 90.9927 1172.19 105.431 1172.19 123.242C1172.19 141.053 1187.06 155.492 1205.4 155.492Z" fill="#113286"/>
<path d="M1201.68 144.025C1215.99 144.025 1227.59 132.759 1227.59 118.863C1227.59 104.966 1215.99 93.7007 1201.68 93.7007C1187.36 93.7007 1175.76 104.966 1175.76 118.863C1175.76 132.759 1187.36 144.025 1201.68 144.025Z" fill="url(#paint3_linear_66_62)"/>
<path d="M1198.48 115.882C1203.67 110.841 1204.72 103.687 1200.82 99.9028C1196.92 96.1187 1189.55 97.1374 1184.36 102.178C1179.17 107.219 1178.12 114.373 1182.02 118.157C1185.92 121.941 1193.28 120.923 1198.48 115.882Z" fill="#D0DDFF"/>
<path d="M1205.22 0C1197.78 0 1187.16 8.52364 1176.31 21.6392V21.646C1176.31 21.646 1190.08 11.897 1202.91 15.3179C1206.47 16.2695 1213.63 21.3994 1218.24 28.2937H1239.3C1226.51 10.9619 1214.06 0 1205.22 0Z" fill="#C93F16"/>
<path d="M1205.4 321.706C1204.1 321.706 1202.41 317.806 1200.59 311.65C1200.76 311.76 1204.83 315.323 1207.21 309.896C1209.6 304.469 1212.75 243.858 1210.69 235.071C1208.63 226.284 1193.16 223.347 1193.16 223.347L1193.17 223.333L1198.35 219.329C1200.87 217.75 1203.37 216.728 1205.4 216.728C1212.04 216.728 1223.71 227.641 1224.64 233.441C1225.57 239.241 1211.35 321.706 1205.4 321.706Z" fill="#F56E3F"/>
<path d="M1846.5 423.241C1842.45 418.56 1837.9 414.326 1832.94 410.612C1822.53 402.833 1810.5 397.501 1797.75 395.012C1784.99 392.524 1771.84 392.942 1759.27 396.236C1746.7 399.531 1735.04 405.616 1725.15 414.041C1715.25 422.465 1707.38 433.012 1702.13 444.896C1692.46 438.812 1681.35 435.431 1669.93 435.103C1658.52 434.775 1647.22 437.513 1637.23 443.032C1627.23 448.551 1618.9 456.65 1613.09 466.483C1607.29 476.317 1604.22 487.528 1604.22 498.947C1604.22 501.08 1604.33 503.187 1604.53 505.268C1594.58 499.73 1583.06 497.668 1571.81 499.406C1560.55 501.145 1550.19 506.585 1542.37 514.868C1534.59 498.866 1522.06 485.655 1506.5 477.037C1490.93 468.42 1473.08 464.815 1455.39 466.717C1437.7 468.618 1421.03 475.933 1407.65 487.662C1394.27 499.39 1384.83 514.962 1380.63 532.252C1370.35 527.318 1358.88 525.426 1347.56 526.801C1336.24 528.175 1325.56 532.757 1316.76 540.007C1307.96 547.257 1301.42 556.872 1297.91 567.719C1294.39 578.565 1294.06 590.189 1296.93 601.221C1287.52 598.346 1277.4 598.915 1268.37 602.825C1259.34 606.736 1252 613.732 1247.66 622.562C1243.52 605.541 1234.58 590.065 1221.9 577.971C1209.23 565.877 1193.35 557.671 1176.16 554.326C1158.96 550.982 1141.16 552.639 1124.88 559.102C1108.6 565.565 1094.51 576.562 1084.29 590.789C1078.31 584.754 1071.08 580.104 1063.11 577.165C1055.14 574.226 1046.62 573.07 1038.15 573.779C1029.68 574.487 1021.48 577.043 1014.1 581.266C1006.73 585.489 1000.38 591.276 995.482 598.221C978.611 578.098 954.539 565.369 928.41 562.755C928.591 560.888 928.683 558.995 928.686 557.074C928.684 544.248 924.441 531.782 916.617 521.618C908.792 511.455 897.827 504.164 885.427 500.882C873.028 497.6 859.891 498.51 848.063 503.472C836.235 508.433 826.38 517.167 820.033 528.313C804.239 517.245 784.87 512.5 765.749 515.012C746.627 517.524 729.142 527.112 716.743 541.884C712.332 534.802 705.943 529.167 698.364 525.676C690.785 522.186 682.35 520.993 674.101 522.245C674.101 522.014 674.109 521.784 674.109 521.553C674.108 496.504 664.779 472.353 647.941 453.808C631.103 435.262 607.962 423.651 583.03 421.238C558.098 418.825 533.16 425.782 513.078 440.754C492.996 455.726 479.208 477.639 474.403 502.223C463.722 496.477 451.855 493.282 439.733 492.888C427.61 492.494 415.562 494.912 404.53 499.953C393.498 504.993 383.783 512.519 376.146 521.941C368.508 531.363 363.156 542.426 360.508 554.262C347.501 546.935 332.179 544.878 317.7 548.515C317.846 546.836 317.925 545.137 317.925 543.42C317.925 532.357 314.769 521.524 308.827 512.193C302.884 502.862 294.402 495.42 284.377 490.743C274.352 486.065 263.2 484.345 252.232 485.785C241.263 487.225 230.933 491.766 222.456 498.873C211.738 480.701 195.587 466.35 176.281 457.843C156.974 449.337 135.485 447.103 114.841 451.456C94.1975 455.81 75.4407 466.532 61.2139 482.111C46.987 497.69 38.0074 517.341 35.5408 538.294C29.6285 536.456 23.3871 535.927 17.2498 536.743C11.1124 537.559 5.22644 539.701 0 543.02V662.027H1920V401.384C1893.89 401.347 1868.35 408.945 1846.5 423.241Z" fill="white"/>
</g>
<defs>
<linearGradient id="paint0_linear_66_62" x1="960.005" y1="905.924" x2="960.005" y2="322.045" gradientUnits="userSpaceOnUse">
<stop offset="0.638" stop-color="#B5C7FF"/>
<stop offset="0.932" stop-color="#CBD9FF"/>
</linearGradient>
<linearGradient id="paint1_linear_66_62" x1="960.003" y1="1197.47" x2="960.003" y2="359.624" gradientUnits="userSpaceOnUse">
<stop offset="0.307" stop-color="#BED0FF"/>
<stop offset="0.891" stop-color="#EFF3FF"/>
</linearGradient>
<linearGradient id="paint2_linear_66_62" x1="-1445.54" y1="647.099" x2="-1445.54" y2="646.474" gradientUnits="userSpaceOnUse">
<stop stop-color="white"/>
<stop offset="1" stop-color="#E3EAFF"/>
</linearGradient>
<linearGradient id="paint3_linear_66_62" x1="-1419.16" y1="649.33" x2="-1418.23" y2="649.33" gradientUnits="userSpaceOnUse">
<stop stop-color="#6A94FF"/>
<stop offset="1" stop-color="#3657AC"/>
</linearGradient>
<clipPath id="clip0_66_62">
<rect width="1920" height="663.53" fill="white"/>
</clipPath>
</defs>
</svg>
